<?xml version="1.0" encoding="UTF-8"?>
<svg xmlns="http://www.w3.org/2000/svg"
     viewBox="0 0 2200 400">

  <defs>
    <!-- 1 -->
    <symbol id="s2-1" viewBox="0 0 139.322 590">
	<!-- extra vertical padding so it centers nicely in the cell -->
      <g transform="translate(0.119859,150)">
        <path
          d="M8.62 288.24 L130.46 288.24 A8.61985 8.61985 -180 0 0 139.08 279.62
             L139.08 8.86 A8.61985 8.61985 -180 0 0 130.46 0.24
             L8.62 0.24 A8.61985 8.61985 -180 0 0 0 8.86
             L0 279.62 A8.61985 8.61985 -180 0 0 8.62 288.24 Z"
          fill="#000000"
          stroke="#000000"
          stroke-linecap="round"
          stroke-linejoin="round"
          stroke-width="0.24"
        />
      </g>
    </symbol>
	<!-- 2 -->
	<symbol id="s2-2" viewBox="0 0 490.959 288.24">
		<g transform="translate(0.12,-0.12)">
			<g transform="translate(0,288.48) scale(1,-1)">
			<path
				d="M347.04 130.23 A6.58944 6.58944 0 0 1 344.87 130.6 L223.11 130.6 L223.11 130.81 L147.03 130.81 A8.03974
					8.03974 0 0 1 145.16 130.59 A6.58944 6.58944 0 0 1 138.97 124.01 L138.97 122.77 L138.99 30.88 L138.97
					29.8 A6.58944 6.58944 0 0 1 144.22 23.35 A8.03974 8.03974 0 0 1 147.03 22.84 L343.43 22.84 A8.03974
					8.03974 0 0 1 346.27 23.36 A6.58944 6.58944 0 0 1 351.46 29.8 L351.46 30.47 A8.03974 8.03974 0 0 1 351.47
					30.88 L351.47 108.27 L490.72 108.27 L490.72 15.46 A15.2181 15.2181 -180 0 0 475.5 0.24 L15.22 0.24 A15.2181
					15.2181 -180 0 0 0 15.46 L0 134.17 A19.1125 19.1125 -180 0 0 19.11 153.28 L267.61 153.28 L267.61 152.71
					L343.69 152.71 A8.03974 8.03974 0 0 1 351.73 160.75 L351.73 252.63 A8.03974 8.03974 0 0 1 351.45 254.77
					A6.58946 6.58946 0 0 1 344.87 260.96 L145.56 260.96 A6.58946 6.58946 0 0 1 138.97 254.37 L138.97 175.25
					L0 175.25 L0 273.02 A15.2181 15.2181 -180 0 0 15.22 288.24 L475.5 288.24 A15.2181 15.2181 -180 0 0 490.72
					273.02 L490.72 149.35 A19.1125 19.1125 -180 0 0 471.61 130.23 L347.04 130.23 Z"
				fill="#000000"
				stroke="#000000"
				stroke-linecap="round"
				stroke-linejoin="round"
				stroke-width="0.24"
			/>
			</g>
		</g>
	</symbol>
	<!-- 3 -->
	<symbol id="s2-3" viewBox="0 0 493.898 288.24">
		<g transform="translate(0.12,-0.12)">
		<path
			d="M354.75 168.87 L354.75 184.56 L354.75 236.1 L354.74 251.6 L354.74 251.7 A13.1631 13.1631 0 0 1 354.74 251.96
				A13.1631 13.1631 0 0 1 341.58 264.77 L247.71 264.77 L247.71 265.12 L155.52 265.12 A13.1631 13.1631 0
				0 1 144.92 259.77 L144.92 179.82 L15.82 179.82 A15.8155 15.2036 -180 0 0 0 195.03 L0 273.04 A15.8155
				15.2036 -180 0 0 15.82 288.24 L404.11 288.24 L404.11 287.89 L463.21 287.89 A30.453 30.453 -180 0 0 493.66
				257.43 L493.66 30.69 A30.453 30.453 -180 0 0 463.21 0.24 L404.11 0.24 L381.6 0.24 L247.71 0.24 L144.93
				0.24 L101.03 0.24 L15.82 0.24 A15.8155 15.2036 -180 0 0 0 15.44 L0 93.45 A15.8155 15.2036 -180 0 0 15.82
				108.66 L144.93 108.66 L144.93 93.45 L144.93 28.71 A13.1631 13.1631 0 0 1 155.52 23.36 L247.71 23.36
				L341.58 23.36 A13.1631 13.1631 0 0 1 354.75 36.52 L354.75 52.38 L354.75 103.56 L354.75 119.26 A13.1631
				13.1631 0 0 1 341.58 132.42 L247.71 132.42 L247.71 155.7 L341.58 155.7 A13.1631 13.1631 0 0 1 354.75
				168.87 Z"
			fill="#000000"
			stroke="#000000"
			stroke-linecap="round"
			stroke-linejoin="round"
			stroke-width="0.24"
		/>
		</g>
	</symbol>
	<!-- 4 -->
	<symbol id="s2-4" viewBox="0 0 480.896 282.334">
		<g transform="translate(0.12,-0.12)">
		<path 
			d="M344.25 255.21 L344.25 270.76 A14.2026 14.2026 -180 0 0 358.21 282.33 L452.25 282.33 L465.75 282.33 A14.906
				14.906 -180 0 0 480.66 267.43 L480.66 15.15 A14.906 14.906 -180 0 0 465.75 0.24 L452.25 0.24 L437.68
				0.24 L358.2 0.24 A14.2026 14.2026 -180 0 0 344 14.44 L344 27.43 A6.45432 6.45432 0 0 1 344.25 29.19
				L344.25 88.51 L344.25 121.47 A6.45429 6.45429 0 0 1 337.8 127.93 L142.58 127.93 A6.45432 6.45432 0 0
				1 136.12 121.47 L136.12 87.1 L136.12 29.19 A6.4543 6.4543 0 0 1 136.18 28.38 L136.18 14.44 A14.2026
				14.2026 -180 0 0 121.97 0.24 L27.92 0.24 L14.91 0.24 A14.906 14.906 -180 0 0 0 15.15 L0 137.13 L0 137.24
				A18.7205 18.7205 -180 0 0 18.72 155.85 L140.45 155.85 A6.45432 6.45432 0 0 1 142.58 155.49 L262.12 155.49
				L262.12 155.29 L336.65 155.29 A7.87486 7.87486 0 0 1 338.65 155.55 A6.45432 6.45432 0 0 1 344.13 160.72
				A7.87486 7.87486 0 0 1 344.52 163.16 L344.52 192.9 L344.52 253.16 A7.87486 7.87486 0 0 1 344.25 255.21
				Z"
			fill="#000000"
			stroke="#000000"
			stroke-linecap="round"
			stroke-linejoin="round"
			stroke-width="0.24"
		/>
		</g>
	</symbol>
	<!-- 5 -->
	<symbol id="s2-5" viewBox="0 0 480.896 282.334">
		<g transform="translate(0.12, -0.12)">
		<path 
			d="M480.66 22.42 L480.66 15.15 A14.906 14.906 -180 0 0 465.75 0.24 L14.91 0.24 A14.906 14.906 -180 0 0 0 15.15
						 L0 131.43 A18.7205 18.7205 -180 0 0 18.72 150.15 L262.12 150.15 L262.12 149.58 L336.65 149.58 A7.87486 7.87486
						 0 0 1 344.52 157.46 L344.52 247.46 A7.87486 7.87486 0 0 1 344.24 249.55 A6.45432 6.45432 0 0 1 337.8 255.62
						 L142.58 255.62 A6.45432 6.45432 0 0 1 136.12 249.16 L136.12 171.66 L0 171.66 L0 267.43 A14.906 14.906 -180
						 0 0 14.91 282.33 L465.75 282.33 A14.906 14.906 -180 0 0 480.66 267.43 L480.66 146.29 A18.7205 18.7205 -180
						 0 0 461.94 127.57 L339.92 127.57 A6.45431 6.45431 0 0 1 337.8 127.93 L218.53 127.93 L218.53 128.13 L144.01
						 128.13 A7.87486 7.87486 0 0 1 142.18 127.92 A6.45431 6.45431 0 0 1 136.12 121.47 L136.12 120.26 L136.14
						 30.25 L136.12 29.19 A6.4543 6.4543 0 0 1 141.26 22.88 A7.87486 7.87486 0 0 1 144.01 22.38 L336.39 22.38
						 A7.87487 7.87487 0 0 1 337.13 22.42 L480.66 22.42 Z"
			fill="#000000"
			stroke="#000000"
			stroke-linecap="round"
			stroke-linejoin="round"
			stroke-width="0.24"
		/>
		</g>
	</symbol>
	<!-- 6 -->
	<symbol id="s2-6" viewBox="0 0 480.896 282.334">
		<g transform="translate(0.12,-0.12)">
			<g transform="translate(480.656,-5.68434E-14) scale(-1,1)">
			<!-- Fill path -->
			<path
				d="M0 135.64 A7.87487 7.87487 0 0 1 0.08 134.52 L0 134.52 L0 135.64 L0 135.64 ZM0 147.05 L0 135.64 L0 147.05
					L0 147.05 ZM136.12 106.82 L136.12 29.19 A6.4543 6.4543 0 0 1 142.58 22.74 L337.8 22.74 A6.45432 6.45432
					0 0 1 344.25 28.96 A7.87486 7.87486 0 0 1 344.52 31.02 L344.52 121.02 A7.87486 7.87486 0 0 1 336.65
					128.9 L262.12 128.9 L262.12 128.33 L18.72 128.33 A18.7199 18.7199 -180 0 0 0 147.05 L0 267.43 A14.906
					14.906 -180 0 0 14.91 282.33 L465.75 282.33 A14.906 14.906 -180 0 0 480.66 267.43 L480.66 15.15 A14.906
					14.906 -180 0 0 465.75 0.24 L14.91 0.24 A14.906 14.906 -180 0 0 0 15.15 L0 106.82 L136.12 106.82 ZM142.58
					255.62 A6.45432 6.45432 0 0 1 136.12 249.16 L136.12 161.94 A6.45432 6.45432 0 0 1 142.58 155.49 L337.8
					155.49 A6.45432 6.45432 0 0 1 344.25 161.94 L344.25 249.16 A6.45434 6.45434 0 0 1 337.8 255.62 L142.58
					255.62 Z"
				fill="#000000"
			/>
			<!-- Stroke path -->
			<path
				d="M0 135.64 A7.87487 7.87487 0 0 1 0.08 134.52 L0 134.52 L0 135.64M0 147.05 L0 135.64 L0 147.05M136.12 106.82
				L136.12 29.19 A6.4543 6.4543 0 0 1 142.58 22.74 L337.8 22.74 A6.45432 6.45432 0 0 1 344.25 28.96 A7.87486
				7.87486 0 0 1 344.52 31.02 L344.52 121.02 A7.87486 7.87486 0 0 1 336.65 128.9 L262.12 128.9 L262.12
				128.33 L18.72 128.33 A18.7199 18.7199 -180 0 0 0 147.05 L0 267.43 A14.906 14.906 -180 0 0 14.91 282.33
				L465.75 282.33 A14.906 14.906 -180 0 0 480.66 267.43 L480.66 15.15 A14.906 14.906 -180 0 0 465.75 0.24
				L14.91 0.24 A14.906 14.906 -180 0 0 0 15.15 L0 106.82 L136.12 106.82M142.58 255.62 A6.45432 6.45432
				0 0 1 136.12 249.16 L136.12 161.94 A6.45432 6.45432 0 0 1 142.58 155.49 L337.8 155.49 A6.45432 6.45432
				0 0 1 344.25 161.94 L344.25 249.16 A6.45434 6.45434 0 0 1 337.8 255.62 L142.58 255.62"
				fill="none"
				stroke="#000000"
				stroke-linecap="round"
				stroke-linejoin="round"
				stroke-width="0.24"
			/>
			</g>
		</g>
	</symbol>
	<!-- 7 -->
	<symbol id="s2-7" viewBox="0 0 480.896 282.334">
		<g transform="translate(0.12,-0.12)">
			<path
				d="M480.66 45.5 L480.66 15.15 A14.906 14.906 -180 0 0 465.75 0.24 L14.91 0.24 A14.906 14.906 -180 0 0 0 15.15
					 L0 105.82 L135.7 105.82 L135.7 30.02 A7.87487 7.87487 0 0 1 143.58 22.14 L335.95 22.14 A7.87486 7.87486
					 0 0 1 339.42 22.95 A6.45431 6.45431 0 0 1 343.93 27.19 L91.64 279.48 L94.49 282.33 L243.82 282.33 L480.66
					 45.5 Z"
				fill="#000000"
				stroke="#000000"
				stroke-linecap="round"
				stroke-linejoin="round"
				stroke-width="0.24"
			/>
		</g>
	</symbol>
	<!-- 8 -->
	<symbol id="s2-8" viewBox="0 0 480.896 282.334">
		<g transform="translate(0.119999,-0.119982)">
			<path
				d="M337.8 255.62 L142.58 255.62 A6.45432 6.45432 0 0 1 136.12 249.16 L136.12 161.94 A6.45431 6.45431 0 0 1
					142.58 155.49 L337.8 155.49 A6.45432 6.45432 0 0 1 344.25 161.94 L344.25 249.16 A6.45432 6.45432 0 0
					1 337.8 255.62 ZM14.91 282.33 L465.75 282.33 A14.906 14.906 -180 0 0 480.66 267.43 L480.66 15.15 A14.906
					14.906 -180 0 0 465.75 0.24 L14.91 0.24 A14.906 14.906 -180 0 0 0 15.15 L0 267.43 A14.906 14.906 -180
					0 0 14.91 282.33 ZM142.58 127.93 L337.8 127.93 A6.45431 6.45431 -180 0 0 344.25 121.47 L344.25 29.19
					A6.45434 6.45434 -180 0 0 337.8 22.74 L142.58 22.74 A6.45431 6.45431 -180 0 0 136.12 29.19 L136.12 121.47
					A6.45432 6.45432 -180 0 0 142.58 127.93 Z"
				fill="#000000"
				stroke="#000000"
				stroke-linecap="round"
				stroke-linejoin="round"
				stroke-width="0.24"
				fill-rule="evenodd"
			/>
		</g>
	</symbol>
	<!-- 9 -->
	<symbol id="s2-9" viewBox="0 0 480.896 282.334">
		<g transform="translate(0.119999,-0.119982)">
			<path d="M0 172.52 L0 267.43 A14.906 14.906 -180 0 0 14.91 282.33 L465.75 282.33 A14.906 14.906 -180 0 0 480.66 267.43
							 L480.66 15.15 A14.906 14.906 -180 0 0 465.75 0.24 L14.91 0.24 A14.906 14.906 -180 0 0 0 15.15 L0 137.33
							 A18.7199 18.7199 -180 0 0 18.03 151.01 L261.43 151.01 L261.43 150.44 L335.95 150.44 A7.87486 7.87486
							 0 0 1 343.83 158.32 L343.83 159.65 A6.45432 6.45432 0 0 1 344.25 161.94 L344.25 249.16 A6.45434 6.45434
							 0 0 1 339.35 255.43 A7.87486 7.87486 0 0 1 335.95 256.19 L143.58 256.19 A7.87487 7.87487 0 0 1 135.7
							 248.32 L135.7 172.52 L0 172.52 ZM142.58 127.93 A6.45431 6.45431 0 0 1 136.12 121.47 L136.12 29.19 A6.4543
							 6.4543 0 0 1 142.58 22.74 L337.8 22.74 A6.45432 6.45432 0 0 1 344.25 29.19 L344.25 121.47 A6.45429 6.45429
							 0 0 1 337.8 127.93 L142.58 127.93 Z"
				fill="#000000"
				stroke="#000000"
				stroke-linecap="round"
				stroke-linejoin="round"
				stroke-width="0.24"
			/>
		</g>
	</symbol>
	<!-- 0 -->
	<symbol id="s2-0" viewBox="0 0 480.896 282.334">
		<g transform="translate(0.119999,-0.119982)">
			<path d="M451.71 0.24 L451.66 0.24 L379.3 0.24 L102.19 0.24 L29.84 0.24 L29.79 0.24 L11.35 0.24 A11.3548 11.3548
						 -180 0 0 0 11.59 L0 29.98 L0 30.08 L0 66.51 L0 216 L0 252.27 L0 252.37 L0 270.91 A11.3548 11.3548 -180
						 0 0 11.35 282.27 L102.19 282.27 A11.3548 11.3548 -180 0 0 104.07 282.11 L379.27 282.11 L379.3 282.11
						 L451.66 282.11 L470.14 282.11 A11.3548 11.3548 -180 0 0 481.5 270.76 L481.5 252.35 L481.5 252.27 L481.5
						 215.84 L481.5 66.51 L481.5 30.08 L481.5 30 L481.5 11.59 A11.3548 11.3548 -180 0 0 470.14 0.24 L451.71
						 0.24 ZM150.15 259.46 A12.8989 12.8989 0 0 1 137.25 246.56 L137.25 35.79 A12.8989 12.8989 0 0 1 150.15
						 22.9 L332.48 22.9 A12.8989 12.8989 0 0 1 345.37 35.79 L345.37 246.56 A12.8989 12.8989 0 0 1 332.48 259.46
						 L150.15 259.46 Z"
				fill="#000000"
				stroke="#000000"
				stroke-linecap="round"
				stroke-linejoin="round"
				stroke-width="0.24"
			/>
		</g>
	</symbol>
	<!-- S -->
	<symbol id="s2-S" viewBox="0 0 480.896 282.334">
		<g transform="translate(0.119999,-0.119982)">
			<path d="M347.04 130.23 A6.58944 6.58944 0 0 1 344.87 130.6 L223.11 130.6 L223.11 130.81 L147.03 130.81 A8.03974
						 8.03974 0 0 1 145.16 130.59 A6.58944 6.58944 0 0 1 138.97 124.01 L138.97 122.77 L138.99 30.88 L138.97
						 29.8 A6.58944 6.58944 0 0 1 144.22 23.35 A8.03974 8.03974 0 0 1 147.03 22.84 L343.43 22.84 A8.03974
						 8.03974 0 0 1 346.27 23.36 A6.58944 6.58944 0 0 1 351.46 29.8 L351.46 30.47 A8.03974 8.03974 0 0 1 351.47
						 30.88 L351.47 108.27 L490.72 108.27 L490.72 15.46 A15.2181 15.2181 -180 0 0 475.5 0.24 L15.22 0.24 A15.2181
						 15.2181 -180 0 0 0 15.46 L0 134.17 A19.1125 19.1125 -180 0 0 19.11 153.28 L267.61 153.28 L267.61 152.71
						 L343.69 152.71 A8.03974 8.03974 0 0 1 351.73 160.75 L351.73 252.63 A8.03974 8.03974 0 0 1 351.45 254.77
						 A6.58946 6.58946 0 0 1 344.87 260.96 L145.56 260.96 A6.58946 6.58946 0 0 1 138.97 254.37 L138.97 175.25
						 L0 175.25 L0 273.02 A15.2181 15.2181 -180 0 0 15.22 288.24 L475.5 288.24 A15.2181 15.2181 -180 0 0 490.72
						 273.02 L490.72 149.35 A19.1125 19.1125 -180 0 0 471.61 130.23 L347.04 130.23 Z"
				fill="#000000"
				stroke="#000000"
				stroke-linecap="round"
				stroke-linejoin="round"
				stroke-width="0.24"
			/>
		</g>
	</symbol>
	<!-- A -->
	<symbol id="s2-A" viewBox="0 0 480.896 282.334">
		<g transform="translate(0.119999,-0.119982)">
			<path
				d="M13.9 216.24 L69.49 216.24 L13.9 216.24 ZM490.14 277.17 A15.2181 15.2181 -180 0 0 490.72 273.02 L490.72
					 15.46 A15.2181 15.2181 -180 0 0 475.5 0.24 L15.22 0.24 A15.2181 15.2181 -180 0 0 0 15.46 L0 229.99 A13.8972
					 13.8972 -180 0 0 -0 230.14 L0 273.02 A15.2194 15.2194 -180 0 0 15.22 288.24 L125.08 288.24 L125.1 288.24
					 A13.8972 13.8972 -180 0 0 138.97 274.34 L138.97 230.14 L138.97 230.13 L138.98 165.33 A6.58946 6.58946
					 0 0 1 145.57 158.74 L344.87 158.74 A6.58946 6.58946 0 0 1 351.46 165.33 L351.46 229.99 A1.81152 1.81152
					 0 0 1 351.46 230.14 L351.46 273.02 A15.2194 15.2194 -180 0 0 366.68 288.24 L475.5 288.24 A15.2181 15.2181
					 -180 0 0 490.14 277.17 ZM145.57 130.6 A6.58944 6.58944 0 0 1 138.98 124.01 L138.98 29.8 A6.58944 6.58944
					 0 0 1 145.57 23.21 L344.87 23.21 A6.58945 6.58945 0 0 1 351.46 29.8 L351.46 124.01 A6.58942 6.58942
					 0 0 1 344.87 130.6 L145.57 130.6 Z"
				fill="#000000"
				stroke="#000000"
				stroke-linecap="round"
				stroke-linejoin="round"
				stroke-width="0.24"
			/>
		</g>
	</symbol>
	<!-- C -->
	<symbol id="s2-C" viewBox="0 0 480.896 282.334">
		<g transform="translate(0.119999,-0.119982)">
			<path
				d="M136.12 116.95 L136.12 116.87 L136.12 87.35 L136.12 35.79 A12.8989 12.8989 0 0 1 149.02 22.9 L331.35 22.9 A12.8989
					 12.8989 0 0 1 341.73 28.14 L341.73 106.48 L468.25 106.48 A15.498 14.8984 -180 0 0 483.75 91.58 L483.75 15.14
					 A15.498 14.8984 -180 0 0 468.25 0.24 L29.84 0.24 A29.8418 29.8418 -180 0 0 -0 30.08 L0 252.27 A29.8418 29.8418
					 -180 0 0 29.84 282.11 L87.75 282.11 L87.75 282.46 L468.25 282.46 A15.498 14.8984 -180 0 0 483.75 267.56
					 L483.75 191.12 A15.498 14.8984 -180 0 0 468.25 176.22 L341.73 176.22 L341.73 254.56 A12.8989 12.8989 0 0
					 1 331.35 259.8 L241.02 259.8 L241.02 259.46 L149.02 259.46 A12.8989 12.8989 0 0 1 136.13 246.9 A12.8989
					 12.8989 0 0 1 136.13 246.65 L136.12 231.37 L136.12 195.35 L136.12 165.48 L136.12 165.4 L136.12 116.95 Z"
				fill="#000000"
				stroke="#000000"
				stroke-linecap="round"
				stroke-linejoin="round"
				stroke-width="0.24"
			/>
		</g>
	</symbol>
	<!-- Decimal -->
	<symbol id="s2-decimal" viewBox="0 0 480.896 282.334">
	<!-- shift the dot down so its bottom sits at y = 282.334 -->
	<g transform="translate(0,175.851)">
		<g transform="translate(0.119999,-0.119982)">
		<path
			d="M6.58 106.48 L99.66 106.48 A6.5846 6.5846 -180 0 0 106.24 99.9 L106.24 6.82 A6.5846 6.5846 -180 0 0 99.66
				0.24 L6.58 0.24 A6.5846 6.5846 -180 0 0 0 6.82 L0 99.9 A6.5846 6.5846 -180 0 0 6.58 106.48 Z"
			fill="#000000"
			stroke="#000000"
			stroke-linecap="round"
			stroke-linejoin="round"
			stroke-width="0.24"
		/>
		</g>
	</g>
	</symbol>
  </defs>

  <!-- S2 10.3 insignia -->
  <g id="s2-10-3">

    <!-- "S2" prefix -->
    <use href="#s2-S"
         x="0"   y="0"
         width="350" height="350" />

    <use href="#s2-2"
         x="0" y="250"
         width="350" height="350" />

    <!-- "10.3" -->
    <use href="#s2-1"
         x="300"  y="268"
         width="300" height="350" />

    <use href="#s2-0"
         x="550" y="268"
         width="300" height="350" />

    <use href="#s2-decimal"
         x="875" y="328"
         width="180" height="300" />

    <use href="#s2-3"
         x="940" y="268"
         width="300" height="350" />

  </g>

</svg>
