<?xml version="1.0" encoding="UTF-8" standalone="no"?>
<!DOCTYPE svg PUBLIC "-//W3C//DTD SVG 1.1//EN" "http://www.w3.org/Graphics/SVG/1.1/DTD/svg11.dtd">
<!-- Generated by Microsoft Visio, SVG Export S2_3.svg Page-1 -->
<svg xmlns="http://www.w3.org/2000/svg" xmlns:xlink="http://www.w3.org/1999/xlink" xmlns:ev="http://www.w3.org/2001/xml-events"
		xmlns:v="http://schemas.microsoft.com/visio/2003/SVGExtensions/" width="6.8597in" height="4.00333in"
		viewBox="0 0 493.898 288.24" xml:space="preserve" color-interpolation-filters="sRGB" class="st2">
	<v:documentProperties v:langID="1033" v:viewMarkup="false"/>

	<style type="text/css">
	<![CDATA[
		.st1 {fill:#000000;stroke:#000000;stroke-linecap:round;stroke-linejoin:round;stroke-width:0.24}
		.st2 {fill:none;fill-rule:evenodd;font-size:12px;overflow:visible;stroke-linecap:square;stroke-miterlimit:3}
	]]>
	</style>

	<g v:mID="0" v:index="1" v:groupContext="foregroundPage">
		<title>Page-1</title>
		<v:pageProperties v:drawingScale="1" v:pageScale="1" v:drawingUnits="19" v:shadowOffsetX="9" v:shadowOffsetY="-9"/>
		<g id="group2-1" transform="translate(0.12,-0.12)" v:mID="2" v:groupContext="group">
			<title>Sheet.2</title>
			<g id="shape1-2" v:mID="1" v:groupContext="shape">
				<title>Sheet.1</title>
				<path d="M354.75 168.87 L354.75 184.56 L354.75 236.1 L354.74 251.6 L354.74 251.7 A13.1631 13.1631 0 0 1 354.74 251.96
							 A13.1631 13.1631 0 0 1 341.58 264.77 L247.71 264.77 L247.71 265.12 L155.52 265.12 A13.1631 13.1631 0
							 0 1 144.92 259.77 L144.92 179.82 L15.82 179.82 A15.8155 15.2036 -180 0 0 0 195.03 L0 273.04 A15.8155
							 15.2036 -180 0 0 15.82 288.24 L404.11 288.24 L404.11 287.89 L463.21 287.89 A30.453 30.453 -180 0 0 493.66
							 257.43 L493.66 30.69 A30.453 30.453 -180 0 0 463.21 0.24 L404.11 0.24 L381.6 0.24 L247.71 0.24 L144.93
							 0.24 L101.03 0.24 L15.82 0.24 A15.8155 15.2036 -180 0 0 0 15.44 L0 93.45 A15.8155 15.2036 -180 0 0 15.82
							 108.66 L144.93 108.66 L144.93 93.45 L144.93 28.71 A13.1631 13.1631 0 0 1 155.52 23.36 L247.71 23.36
							 L341.58 23.36 A13.1631 13.1631 0 0 1 354.75 36.52 L354.75 52.38 L354.75 103.56 L354.75 119.26 A13.1631
							 13.1631 0 0 1 341.58 132.42 L247.71 132.42 L247.71 155.7 L341.58 155.7 A13.1631 13.1631 0 0 1 354.75
							 168.87 Z" class="st1"/>
			</g>
		</g>
	</g>
</svg>
