<?xml version="1.0" encoding="UTF-8" standalone="no"?>
<!DOCTYPE svg PUBLIC "-//W3C//DTD SVG 1.1//EN" "http://www.w3.org/Graphics/SVG/1.1/DTD/svg11.dtd">
<!-- Generated by Microsoft Visio, SVG Export S2_6.svg Page-1 -->
<svg xmlns="http://www.w3.org/2000/svg" xmlns:xlink="http://www.w3.org/1999/xlink" xmlns:ev="http://www.w3.org/2001/xml-events"
		xmlns:v="http://schemas.microsoft.com/visio/2003/SVGExtensions/" width="6.67911in" height="3.9213in"
		viewBox="0 0 480.896 282.334" xml:space="preserve" color-interpolation-filters="sRGB" class="st3">
	<v:documentProperties v:langID="1033" v:viewMarkup="false"/>

	<style type="text/css">
	<![CDATA[
		.st1 {fill:#000000}
		.st2 {stroke:#000000;stroke-linecap:round;stroke-linejoin:round;stroke-width:0.24}
		.st3 {fill:none;fill-rule:evenodd;font-size:12px;overflow:visible;stroke-linecap:square;stroke-miterlimit:3}
	]]>
	</style>

	<g v:mID="0" v:index="1" v:groupContext="foregroundPage">
		<title>Page-1</title>
		<v:pageProperties v:drawingScale="1" v:pageScale="1" v:drawingUnits="19" v:shadowOffsetX="9" v:shadowOffsetY="-9"/>
		<g id="group2-1" transform="translate(0.12,-0.12)" v:mID="2" v:groupContext="group">
			<title>Sheet.2</title>
			<g id="shape1-2" v:mID="1" v:groupContext="shape" transform="translate(480.656,-5.68434E-14) scale(-1,1)">
				<title>Sheet.1</title>
				<path d="M0 135.64 A7.87487 7.87487 0 0 1 0.08 134.52 L0 134.52 L0 135.64 L0 135.64 ZM0 147.05 L0 135.64 L0 147.05
							 L0 147.05 ZM136.12 106.82 L136.12 29.19 A6.4543 6.4543 0 0 1 142.58 22.74 L337.8 22.74 A6.45432 6.45432
							 0 0 1 344.25 28.96 A7.87486 7.87486 0 0 1 344.52 31.02 L344.52 121.02 A7.87486 7.87486 0 0 1 336.65
							 128.9 L262.12 128.9 L262.12 128.33 L18.72 128.33 A18.7199 18.7199 -180 0 0 0 147.05 L0 267.43 A14.906
							 14.906 -180 0 0 14.91 282.33 L465.75 282.33 A14.906 14.906 -180 0 0 480.66 267.43 L480.66 15.15 A14.906
							 14.906 -180 0 0 465.75 0.24 L14.91 0.24 A14.906 14.906 -180 0 0 0 15.15 L0 106.82 L136.12 106.82 ZM142.58
							 255.62 A6.45432 6.45432 0 0 1 136.12 249.16 L136.12 161.94 A6.45432 6.45432 0 0 1 142.58 155.49 L337.8
							 155.49 A6.45432 6.45432 0 0 1 344.25 161.94 L344.25 249.16 A6.45434 6.45434 0 0 1 337.8 255.62 L142.58
							 255.62 Z" class="st1"/>
				<path d="M0 135.64 A7.87487 7.87487 0 0 1 0.08 134.52 L0 134.52 L0 135.64M0 147.05 L0 135.64 L0 147.05M136.12 106.82
							 L136.12 29.19 A6.4543 6.4543 0 0 1 142.58 22.74 L337.8 22.74 A6.45432 6.45432 0 0 1 344.25 28.96 A7.87486
							 7.87486 0 0 1 344.52 31.02 L344.52 121.02 A7.87486 7.87486 0 0 1 336.65 128.9 L262.12 128.9 L262.12
							 128.33 L18.72 128.33 A18.7199 18.7199 -180 0 0 0 147.05 L0 267.43 A14.906 14.906 -180 0 0 14.91 282.33
							 L465.75 282.33 A14.906 14.906 -180 0 0 480.66 267.43 L480.66 15.15 A14.906 14.906 -180 0 0 465.75 0.24
							 L14.91 0.24 A14.906 14.906 -180 0 0 0 15.15 L0 106.82 L136.12 106.82M142.58 255.62 A6.45432 6.45432
							 0 0 1 136.12 249.16 L136.12 161.94 A6.45432 6.45432 0 0 1 142.58 155.49 L337.8 155.49 A6.45432 6.45432
							 0 0 1 344.25 161.94 L344.25 249.16 A6.45434 6.45434 0 0 1 337.8 255.62 L142.58 255.62" class="st2"/>
			</g>
		</g>
	</g>
</svg>
