<?xml version="1.0" encoding="UTF-8" standalone="no"?>
<!DOCTYPE svg PUBLIC "-//W3C//DTD SVG 1.1//EN" "http://www.w3.org/Graphics/SVG/1.1/DTD/svg11.dtd">
<!-- Generated by Microsoft Visio, SVG Export S2_A.svg Page-1 -->
<svg xmlns="http://www.w3.org/2000/svg" xmlns:xlink="http://www.w3.org/1999/xlink" xmlns:ev="http://www.w3.org/2001/xml-events"
		xmlns:v="http://schemas.microsoft.com/visio/2003/SVGExtensions/" width="6.81889in" height="4.00333in"
		viewBox="0 0 490.96 288.24" xml:space="preserve" color-interpolation-filters="sRGB" class="st2">
	<v:documentProperties v:langID="1033" v:viewMarkup="false"/>

	<style type="text/css">
	<![CDATA[
		.st1 {fill:#000000;stroke:#000000;stroke-linecap:round;stroke-linejoin:round;stroke-width:0.24}
		.st2 {fill:none;fill-rule:evenodd;font-size:12px;overflow:visible;stroke-linecap:square;stroke-miterlimit:3}
	]]>
	</style>

	<g v:mID="0" v:index="1" v:groupContext="foregroundPage">
		<title>Page-1</title>
		<v:pageProperties v:drawingScale="1" v:pageScale="1" v:drawingUnits="19" v:shadowOffsetX="9" v:shadowOffsetY="-9"/>
		<g id="group2-1" transform="translate(0.12,-0.12)" v:mID="2" v:groupContext="group">
			<title>Sheet.2</title>
			<g id="shape1-2" v:mID="1" v:groupContext="shape">
				<title>Sheet.1</title>
				<path d="M13.9 216.24 L69.49 216.24 L13.9 216.24 ZM490.14 277.17 A15.2181 15.2181 -180 0 0 490.72 273.02 L490.72
							 15.46 A15.2181 15.2181 -180 0 0 475.5 0.24 L15.22 0.24 A15.2181 15.2181 -180 0 0 0 15.46 L0 229.99 A13.8972
							 13.8972 -180 0 0 -0 230.14 L0 273.02 A15.2194 15.2194 -180 0 0 15.22 288.24 L125.08 288.24 L125.1 288.24
							 A13.8972 13.8972 -180 0 0 138.97 274.34 L138.97 230.14 L138.97 230.13 L138.98 165.33 A6.58946 6.58946
							 0 0 1 145.57 158.74 L344.87 158.74 A6.58946 6.58946 0 0 1 351.46 165.33 L351.46 229.99 A1.81152 1.81152
							 0 0 1 351.46 230.14 L351.46 273.02 A15.2194 15.2194 -180 0 0 366.68 288.24 L475.5 288.24 A15.2181 15.2181
							 -180 0 0 490.14 277.17 ZM145.57 130.6 A6.58944 6.58944 0 0 1 138.98 124.01 L138.98 29.8 A6.58944 6.58944
							 0 0 1 145.57 23.21 L344.87 23.21 A6.58945 6.58945 0 0 1 351.46 29.8 L351.46 124.01 A6.58942 6.58942
							 0 0 1 344.87 130.6 L145.57 130.6 Z" class="st1"/>
			</g>
		</g>
	</g>
</svg>
