<?xml version="1.0" encoding="UTF-8" standalone="no"?>
<!DOCTYPE svg PUBLIC "-//W3C//DTD SVG 1.1//EN" "http://www.w3.org/Graphics/SVG/1.1/DTD/svg11.dtd">
<!-- Generated by Microsoft Visio, SVG Export S2_C.svg Page-1 -->
<svg xmlns="http://www.w3.org/2000/svg" xmlns:xlink="http://www.w3.org/1999/xlink" xmlns:ev="http://www.w3.org/2001/xml-events"
		xmlns:v="http://schemas.microsoft.com/visio/2003/SVGExtensions/" width="6.72208in" height="3.92305in"
		viewBox="0 0 483.99 282.459" xml:space="preserve" color-interpolation-filters="sRGB" class="st2">
	<v:documentProperties v:langID="1033" v:viewMarkup="false"/>

	<style type="text/css">
	<![CDATA[
		.st1 {fill:#000000;stroke:#000000;stroke-linecap:round;stroke-linejoin:round;stroke-width:0.24}
		.st2 {fill:none;fill-rule:evenodd;font-size:12px;overflow:visible;stroke-linecap:square;stroke-miterlimit:3}
	]]>
	</style>

	<g v:mID="0" v:index="1" v:groupContext="foregroundPage">
		<title>Page-1</title>
		<v:pageProperties v:drawingScale="1" v:pageScale="1" v:drawingUnits="19" v:shadowOffsetX="9" v:shadowOffsetY="-9"/>
		<g id="shape1-1" v:mID="1" v:groupContext="shape" transform="translate(0.12,-0.12)">
			<title>Sheet.1</title>
			<path d="M136.12 116.95 L136.12 116.87 L136.12 87.35 L136.12 35.79 A12.8989 12.8989 0 0 1 149.02 22.9 L331.35 22.9 A12.8989
						 12.8989 0 0 1 341.73 28.14 L341.73 106.48 L468.25 106.48 A15.498 14.8984 -180 0 0 483.75 91.58 L483.75 15.14
						 A15.498 14.8984 -180 0 0 468.25 0.24 L29.84 0.24 A29.8418 29.8418 -180 0 0 -0 30.08 L0 252.27 A29.8418 29.8418
						 -180 0 0 29.84 282.11 L87.75 282.11 L87.75 282.46 L468.25 282.46 A15.498 14.8984 -180 0 0 483.75 267.56
						 L483.75 191.12 A15.498 14.8984 -180 0 0 468.25 176.22 L341.73 176.22 L341.73 254.56 A12.8989 12.8989 0 0
						 1 331.35 259.8 L241.02 259.8 L241.02 259.46 L149.02 259.46 A12.8989 12.8989 0 0 1 136.13 246.9 A12.8989
						 12.8989 0 0 1 136.13 246.65 L136.12 231.37 L136.12 195.35 L136.12 165.48 L136.12 165.4 L136.12 116.95 Z"
					class="st1"/>
		</g>
	</g>
</svg>
