<?xml version="1.0" encoding="UTF-8" standalone="no"?>
<!DOCTYPE svg PUBLIC "-//W3C//DTD SVG 1.1//EN" "http://www.w3.org/Graphics/SVG/1.1/DTD/svg11.dtd">
<!-- Generated by Microsoft Visio, SVG Export S2_0.svg Page-1 -->
<svg xmlns="http://www.w3.org/2000/svg" xmlns:xlink="http://www.w3.org/1999/xlink" xmlns:ev="http://www.w3.org/2001/xml-events"
		xmlns:v="http://schemas.microsoft.com/visio/2003/SVGExtensions/" width="6.69081in" height="3.9204in"
		viewBox="0 0 481.739 282.269" xml:space="preserve" color-interpolation-filters="sRGB" class="st2">
	<v:documentProperties v:langID="1033" v:viewMarkup="false"/>

	<style type="text/css">
	<![CDATA[
		.st1 {fill:#000000;stroke:#000000;stroke-linecap:round;stroke-linejoin:round;stroke-width:0.24}
		.st2 {fill:none;fill-rule:evenodd;font-size:12px;overflow:visible;stroke-linecap:square;stroke-miterlimit:3}
	]]>
	</style>

	<g v:mID="0" v:index="1" v:groupContext="foregroundPage">
		<title>Page-1</title>
		<v:pageProperties v:drawingScale="1" v:pageScale="1" v:drawingUnits="19" v:shadowOffsetX="9" v:shadowOffsetY="-9"/>
		<g id="group2-1" transform="translate(0.12,-0.12)" v:mID="2" v:groupContext="group">
			<title>Sheet.2</title>
			<g id="shape1-2" v:mID="1" v:groupContext="shape">
				<title>Sheet.1</title>
				<path d="M451.71 0.24 L451.66 0.24 L379.3 0.24 L102.19 0.24 L29.84 0.24 L29.79 0.24 L11.35 0.24 A11.3548 11.3548
							 -180 0 0 0 11.59 L0 29.98 L0 30.08 L0 66.51 L0 216 L0 252.27 L0 252.37 L0 270.91 A11.3548 11.3548 -180
							 0 0 11.35 282.27 L102.19 282.27 A11.3548 11.3548 -180 0 0 104.07 282.11 L379.27 282.11 L379.3 282.11
							 L451.66 282.11 L470.14 282.11 A11.3548 11.3548 -180 0 0 481.5 270.76 L481.5 252.35 L481.5 252.27 L481.5
							 215.84 L481.5 66.51 L481.5 30.08 L481.5 30 L481.5 11.59 A11.3548 11.3548 -180 0 0 470.14 0.24 L451.71
							 0.24 ZM150.15 259.46 A12.8989 12.8989 0 0 1 137.25 246.56 L137.25 35.79 A12.8989 12.8989 0 0 1 150.15
							 22.9 L332.48 22.9 A12.8989 12.8989 0 0 1 345.37 35.79 L345.37 246.56 A12.8989 12.8989 0 0 1 332.48 259.46
							 L150.15 259.46 Z" class="st1"/>
			</g>
		</g>
	</g>
</svg>
