<?xml version="1.0" encoding="UTF-8" standalone="no"?>
<!DOCTYPE svg PUBLIC "-//W3C//DTD SVG 1.1//EN" "http://www.w3.org/Graphics/SVG/1.1/DTD/svg11.dtd">
<!-- Generated by Microsoft Visio, SVG Export S2_2.svg Page-1 -->
<svg xmlns="http://www.w3.org/2000/svg" xmlns:xlink="http://www.w3.org/1999/xlink" xmlns:ev="http://www.w3.org/2001/xml-events"
		xmlns:v="http://schemas.microsoft.com/visio/2003/SVGExtensions/" width="6.81888in" height="4.00333in"
		viewBox="0 0 490.959 288.24" xml:space="preserve" color-interpolation-filters="sRGB" class="st2">
	<v:documentProperties v:langID="1033" v:viewMarkup="false"/>

	<style type="text/css">
	<![CDATA[
		.st1 {fill:#000000;stroke:#000000;stroke-linecap:round;stroke-linejoin:round;stroke-width:0.24}
		.st2 {fill:none;fill-rule:evenodd;font-size:12px;overflow:visible;stroke-linecap:square;stroke-miterlimit:3}
	]]>
	</style>

	<g v:mID="0" v:index="1" v:groupContext="foregroundPage">
		<title>Page-1</title>
		<v:pageProperties v:drawingScale="1" v:pageScale="1" v:drawingUnits="19" v:shadowOffsetX="9" v:shadowOffsetY="-9"/>
		<g id="group2-1" transform="translate(0.12,-0.12)" v:mID="2" v:groupContext="group">
			<title>Sheet.2</title>
			<g id="shape1-2" v:mID="1" v:groupContext="shape" transform="translate(0,288.48) scale(1,-1)">
				<title>Sheet.1</title>
				<path d="M347.04 130.23 A6.58944 6.58944 0 0 1 344.87 130.6 L223.11 130.6 L223.11 130.81 L147.03 130.81 A8.03974
							 8.03974 0 0 1 145.16 130.59 A6.58944 6.58944 0 0 1 138.97 124.01 L138.97 122.77 L138.99 30.88 L138.97
							 29.8 A6.58944 6.58944 0 0 1 144.22 23.35 A8.03974 8.03974 0 0 1 147.03 22.84 L343.43 22.84 A8.03974
							 8.03974 0 0 1 346.27 23.36 A6.58944 6.58944 0 0 1 351.46 29.8 L351.46 30.47 A8.03974 8.03974 0 0 1 351.47
							 30.88 L351.47 108.27 L490.72 108.27 L490.72 15.46 A15.2181 15.2181 -180 0 0 475.5 0.24 L15.22 0.24 A15.2181
							 15.2181 -180 0 0 0 15.46 L0 134.17 A19.1125 19.1125 -180 0 0 19.11 153.28 L267.61 153.28 L267.61 152.71
							 L343.69 152.71 A8.03974 8.03974 0 0 1 351.73 160.75 L351.73 252.63 A8.03974 8.03974 0 0 1 351.45 254.77
							 A6.58946 6.58946 0 0 1 344.87 260.96 L145.56 260.96 A6.58946 6.58946 0 0 1 138.97 254.37 L138.97 175.25
							 L0 175.25 L0 273.02 A15.2181 15.2181 -180 0 0 15.22 288.24 L475.5 288.24 A15.2181 15.2181 -180 0 0 490.72
							 273.02 L490.72 149.35 A19.1125 19.1125 -180 0 0 471.61 130.23 L347.04 130.23 Z" class="st1"/>
			</g>
		</g>
	</g>
</svg>
