<?xml version="1.0" encoding="UTF-8" standalone="no"?>
<!DOCTYPE svg PUBLIC "-//W3C//DTD SVG 1.1//EN" "http://www.w3.org/Graphics/SVG/1.1/DTD/svg11.dtd">
<!-- Generated by Microsoft Visio, SVG Export S2_5.svg Page-1 -->
<svg xmlns="http://www.w3.org/2000/svg" xmlns:xlink="http://www.w3.org/1999/xlink" xmlns:ev="http://www.w3.org/2001/xml-events"
		xmlns:v="http://schemas.microsoft.com/visio/2003/SVGExtensions/" width="6.67911in" height="3.9213in"
		viewBox="0 0 480.896 282.334" xml:space="preserve" color-interpolation-filters="sRGB" class="st2">
	<v:documentProperties v:langID="1033" v:viewMarkup="false"/>

	<style type="text/css">
	<![CDATA[
		.st1 {fill:#000000;stroke:#000000;stroke-linecap:round;stroke-linejoin:round;stroke-width:0.24}
		.st2 {fill:none;fill-rule:evenodd;font-size:12px;overflow:visible;stroke-linecap:square;stroke-miterlimit:3}
	]]>
	</style>

	<g v:mID="0" v:index="1" v:groupContext="foregroundPage">
		<title>Page-1</title>
		<v:pageProperties v:drawingScale="1" v:pageScale="1" v:drawingUnits="19" v:shadowOffsetX="9" v:shadowOffsetY="-9"/>
		<g id="shape1-1" v:mID="1" v:groupContext="shape" transform="translate(0.12,-0.12)">
			<title>Sheet.1</title>
			<path d="M480.66 22.42 L480.66 15.15 A14.906 14.906 -180 0 0 465.75 0.24 L14.91 0.24 A14.906 14.906 -180 0 0 0 15.15
						 L0 131.43 A18.7205 18.7205 -180 0 0 18.72 150.15 L262.12 150.15 L262.12 149.58 L336.65 149.58 A7.87486 7.87486
						 0 0 1 344.52 157.46 L344.52 247.46 A7.87486 7.87486 0 0 1 344.24 249.55 A6.45432 6.45432 0 0 1 337.8 255.62
						 L142.58 255.62 A6.45432 6.45432 0 0 1 136.12 249.16 L136.12 171.66 L0 171.66 L0 267.43 A14.906 14.906 -180
						 0 0 14.91 282.33 L465.75 282.33 A14.906 14.906 -180 0 0 480.66 267.43 L480.66 146.29 A18.7205 18.7205 -180
						 0 0 461.94 127.57 L339.92 127.57 A6.45431 6.45431 0 0 1 337.8 127.93 L218.53 127.93 L218.53 128.13 L144.01
						 128.13 A7.87486 7.87486 0 0 1 142.18 127.92 A6.45431 6.45431 0 0 1 136.12 121.47 L136.12 120.26 L136.14
						 30.25 L136.12 29.19 A6.4543 6.4543 0 0 1 141.26 22.88 A7.87486 7.87486 0 0 1 144.01 22.38 L336.39 22.38
						 A7.87487 7.87487 0 0 1 337.13 22.42 L480.66 22.42 Z" class="st1"/>
		</g>
	</g>
</svg>
