<?xml version="1.0" encoding="UTF-8" standalone="no"?>
<!DOCTYPE svg PUBLIC "-//W3C//DTD SVG 1.1//EN" "http://www.w3.org/Graphics/SVG/1.1/DTD/svg11.dtd">
<!-- Generated by Microsoft Visio, SVG Export S2_9.svg Page-1 -->
<svg xmlns="http://www.w3.org/2000/svg" xmlns:xlink="http://www.w3.org/1999/xlink" xmlns:ev="http://www.w3.org/2001/xml-events"
		xmlns:v="http://schemas.microsoft.com/visio/2003/SVGExtensions/" width="6.67911in" height="3.9213in"
		viewBox="0 0 480.896 282.334" xml:space="preserve" color-interpolation-filters="sRGB" class="st2">
	<v:documentProperties v:langID="1033" v:viewMarkup="false"/>

	<style type="text/css">
	<![CDATA[
		.st1 {fill:#000000;stroke:#000000;stroke-linecap:round;stroke-linejoin:round;stroke-width:0.24}
		.st2 {fill:none;fill-rule:evenodd;font-size:12px;overflow:visible;stroke-linecap:square;stroke-miterlimit:3}
	]]>
	</style>

	<g v:mID="0" v:index="1" v:groupContext="foregroundPage">
		<title>Page-1</title>
		<v:pageProperties v:drawingScale="1" v:pageScale="1" v:drawingUnits="19" v:shadowOffsetX="9" v:shadowOffsetY="-9"/>
		<g id="group2-1" transform="translate(0.12,-0.12)" v:mID="2" v:groupContext="group">
			<title>Sheet.2</title>
			<g id="shape1-2" v:mID="1" v:groupContext="shape">
				<title>Sheet.1</title>
				<path d="M0 172.52 L0 267.43 A14.906 14.906 -180 0 0 14.91 282.33 L465.75 282.33 A14.906 14.906 -180 0 0 480.66 267.43
							 L480.66 15.15 A14.906 14.906 -180 0 0 465.75 0.24 L14.91 0.24 A14.906 14.906 -180 0 0 0 15.15 L0 137.33
							 A18.7199 18.7199 -180 0 0 18.03 151.01 L261.43 151.01 L261.43 150.44 L335.95 150.44 A7.87486 7.87486
							 0 0 1 343.83 158.32 L343.83 159.65 A6.45432 6.45432 0 0 1 344.25 161.94 L344.25 249.16 A6.45434 6.45434
							 0 0 1 339.35 255.43 A7.87486 7.87486 0 0 1 335.95 256.19 L143.58 256.19 A7.87487 7.87487 0 0 1 135.7
							 248.32 L135.7 172.52 L0 172.52 ZM142.58 127.93 A6.45431 6.45431 0 0 1 136.12 121.47 L136.12 29.19 A6.4543
							 6.4543 0 0 1 142.58 22.74 L337.8 22.74 A6.45432 6.45432 0 0 1 344.25 29.19 L344.25 121.47 A6.45429 6.45429
							 0 0 1 337.8 127.93 L142.58 127.93 Z" class="st1"/>
			</g>
		</g>
	</g>
</svg>
