  0
SECTION
  2
HEADER
  9
$ACADVER
  1
AC1014
  9
$ACADMAINTVER
 70
     0
  9
$DWGCODEPAGE
  3
ANSI_1252
  9
$INSBASE
 10
0.0
 20
0.0
 30
0.0
  9
$EXTMIN
 10
0.0
 20
0.0
 30
0.0
  9
$EXTMAX
 10
8.5
 20
11.0
 30
0.0
  9
$LIMMIN
 10
0.0
 20
0.0
  9
$LIMMAX
 10
12.0
 20
9.0
  9
$ORTHOMODE
 70
     0
  9
$REGENMODE
 70
     1
  9
$FILLMODE
 70
     0
  9
$QTEXTMODE
 70
     0
  9
$MIRRTEXT
 70
     1
  9
$DRAGMODE
 70
     2
  9
$LTSCALE
 40
1.0
  9
$OSMODE
 70
    37
  9
$ATTMODE
 70
     1
  9
$TEXTSIZE
 40
0.2
  9
$TRACEWID
 40
0.05
  9
$TEXTSTYLE
  7
STANDARD
  9
$CLAYER
  8
0
  9
$CELTYPE
  6
BYLAYER
  9
$CECOLOR
 62
   256
  9
$CELTSCALE
 40
1.0
  9
$DELOBJ
 70
     1
  9
$DISPSILH
 70
     0
  9
$DIMSCALE
 40
1.0
  9
$DIMASZ
 40
0.18
  9
$DIMEXO
 40
0.0625
  9
$DIMDLI
 40
0.38
  9
$DIMRND
 40
0.0
  9
$DIMDLE
 40
0.0
  9
$DIMEXE
 40
0.18
  9
$DIMTP
 40
0.0
  9
$DIMTM
 40
0.0
  9
$DIMTXT
 40
0.18
  9
$DIMCEN
 40
0.09
  9
$DIMTSZ
 40
0.0
  9
$DIMTOL
 70
     0
  9
$DIMLIM
 70
     0
  9
$DIMTIH
 70
     0
  9
$DIMTOH
 70
     0
  9
$DIMSE1
 70
     0
  9
$DIMSE2
 70
     0
  9
$DIMTAD
 70
     1
  9
$DIMZIN
 70
     0
  9
$DIMBLK
  1

  9
$DIMASO
 70
     1
  9
$DIMSHO
 70
     1
  9
$DIMPOST
  1

  9
$DIMAPOST
  1

  9
$DIMALT
 70
     0
  9
$DIMALTD
 70
     2
  9
$DIMALTF
 40
25.4
  9
$DIMLFAC
 40
1.0
  9
$DIMTOFL
 70
     0
  9
$DIMTVP
 40
0.0
  9
$DIMTIX
 70
     0
  9
$DIMSOXD
 70
     0
  9
$DIMSAH
 70
     0
  9
$DIMBLK1
  1

  9
$DIMBLK2
  1

  9
$DIMSTYLE
  2
STANDARD
  9
$DIMCLRD
 70
     0
  9
$DIMCLRE
 70
     0
  9
$DIMCLRT
 70
     0
  9
$DIMTFAC
 40
1.0
  9
$DIMGAP
 40
0.09
  9
$DIMJUST
 70
     0
  9
$DIMSD1
 70
     0
  9
$DIMSD2
 70
     0
  9
$DIMTOLJ
 70
     1
  9
$DIMTZIN
 70
     0
  9
$DIMALTZ
 70
     0
  9
$DIMALTTZ
 70
     0
  9
$DIMFIT
 70
     5
  9
$DIMUPT
 70
     0
  9
$DIMUNIT
 70
     2
  9
$DIMDEC
 70
     2
  9
$DIMTDEC
 70
     4
  9
$DIMALTU
 70
     2
  9
$DIMALTTD
 70
     2
  9
$DIMTXSTY
  7
STANDARD
  9
$DIMAUNIT
 70
     0
  9
$LUNITS
 70
     2
  9
$LUPREC
 70
     4
  9
$SKETCHINC
 40
0.1
  9
$FILLETRAD
 40
0.5
  9
$AUNITS
 70
     0
  9
$AUPREC
 70
     0
  9
$MENU
  1
.
  9
$ELEVATION
 40
0.0
  9
$PELEVATION
 40
0.0
  9
$THICKNESS
 40
0.0
  9
$LIMCHECK
 70
     0
  9
$BLIPMODE
 70
     0
  9
$CHAMFERA
 40
0.5
  9
$CHAMFERB
 40
0.5
  9
$CHAMFERC
 40
1.0
  9
$CHAMFERD
 40
0.0
  9
$SKPOLY
 70
     0
  9
$TDCREATE
 40
2450772.666465926
  9
$TDUPDATE
 40
2461020.522407396
  9
$TDINDWG
 40
0.0011564931
  9
$TDUSRTIMER
 40
0.0011564931
  9
$USRTIMER
 70
     1
  9
$ANGBASE
 50
0.0
  9
$ANGDIR
 70
     0
  9
$PDMODE
 70
     0
  9
$PDSIZE
 40
0.0
  9
$PLINEWID
 40
0.0
  9
$COORDS
 70
     1
  9
$SPLFRAME
 70
     0
  9
$SPLINETYPE
 70
     6
  9
$SPLINESEGS
 70
     8
  9
$ATTDIA
 70
     0
  9
$ATTREQ
 70
     1
  9
$HANDLING
 70
     1
  9
$HANDSEED
  5
A3
  9
$SURFTAB1
 70
     6
  9
$SURFTAB2
 70
     6
  9
$SURFTYPE
 70
     6
  9
$SURFU
 70
     6
  9
$SURFV
 70
     6
  9
$UCSNAME
  2

  9
$UCSORG
 10
0.0
 20
0.0
 30
0.0
  9
$UCSXDIR
 10
1.0
 20
0.0
 30
0.0
  9
$UCSYDIR
 10
0.0
 20
1.0
 30
0.0
  9
$PUCSNAME
  2

  9
$PUCSORG
 10
0.0
 20
0.0
 30
0.0
  9
$PUCSXDIR
 10
1.0
 20
0.0
 30
0.0
  9
$PUCSYDIR
 10
0.0
 20
1.0
 30
0.0
  9
$USERI1
 70
     0
  9
$USERI2
 70
     0
  9
$USERI3
 70
     0
  9
$USERI4
 70
     0
  9
$USERI5
 70
     0
  9
$USERR1
 40
0.0
  9
$USERR2
 40
0.0
  9
$USERR3
 40
0.0
  9
$USERR4
 40
0.0
  9
$USERR5
 40
0.0
  9
$WORLDVIEW
 70
     1
  9
$SHADEDGE
 70
     3
  9
$SHADEDIF
 70
    70
  9
$TILEMODE
 70
     1
  9
$MAXACTVP
 70
    48
  9
$PINSBASE
 10
0.0
 20
0.0
 30
0.0
  9
$PLIMCHECK
 70
     0
  9
$PEXTMIN
 10
0.0
 20
0.0
 30
0.0
  9
$PEXTMAX
 10
0.0
 20
0.0
 30
0.0
  9
$PLIMMIN
 10
0.0
 20
0.0
  9
$PLIMMAX
 10
12.0
 20
9.0
  9
$UNITMODE
 70
     0
  9
$VISRETAIN
 70
     1
  9
$PLINEGEN
 70
     0
  9
$PSLTSCALE
 70
     1
  9
$TREEDEPTH
 70
  3020
  9
$PICKSTYLE
 70
     1
  9
$CMLSTYLE
  2
STANDARD
  9
$CMLJUST
 70
     0
  9
$CMLSCALE
 40
1.0
  9
$PROXYGRAPHICS
 70
     1
  9
$MEASUREMENT
 70
     0
  0
ENDSEC
  0
SECTION
  2
CLASSES
  0
CLASS
  1
LWPOLYLINE
  2
AcDbPolyline
  3
ObjectDBX Classes
 90
       20
280
     0
281
     1
  0
CLASS
  1
IMAGE
  2
AcDbRasterImage
  3
ISM
 90
       21
280
     0
281
     1
  0
CLASS
  1
OLE2FRAME
  2
AcDbOle2Frame
  3
ObjectDBX Classes
 90
       21
280
     0
281
     1
  0
CLASS
  1
HATCH
  2
AcDbHatch
  3
ObjectDBX Classes
 90
       20
280
     0
281
     1
  0
CLASS
  1
DICTIONARYVAR
  2
AcDbDictionaryVar
  3
ObjectDBX Classes
 90
       20
280
     0
281
     0
  0
CLASS
  1
RASTERVARIABLES
  2
AcDbRasterVariables
  3
ISM
 90
       21
280
     0
281
     0
  0
CLASS
  1
IMAGEDEF
  2
AcDbRasterImageDef
  3
ISM
 90
       21
280
     0
281
     0
  0
CLASS
  1
IMAGEDEF_REACTOR
  2
AcDbRasterImageDefReactor
  3
ISM
 90
       21
280
     0
281
     0
  0
CLASS
  1
IDBUFFER
  2
AcDbIdBuffer
  3
ObjectDBX Classes
 90
       20
280
     0
281
     0
  0
CLASS
  1
SPATIAL_FILTER
  2
AcDbSpatialFilter
  3
ObjectDBX Classes
 90
       20
280
     0
281
     0
  0
CLASS
  1
XRECORD
  2
AcDbXrecord
  3
ObjectDBX Classes
 90
       21
280
     0
281
     0
  0
CLASS
  1
ACDBDICTIONARYWDFLT
  2
AcDbDictionaryWithDefault
  3
ObjectDBX Classes
 90
       22
280
     0
281
     0
  0
CLASS
  1
SCALE
  2
AcDbScale
  3
ObjectDBX Classes
 90
       27
280
     0
281
     0
  0
CLASS
  1
VISUALSTYLE
  2
AcDbVisualStyle
  3
ObjectDBX Classes
 90
       26
280
     0
281
     0
  0
CLASS
  1
MATERIAL
  2
AcDbMaterial
  3
ObjectDBX Classes
 90
       23
280
     0
281
     0
  0
CLASS
  1
TABLESTYLE
  2
AcDbTableStyle
  3
ObjectDBX Classes
 90
       25
280
     0
281
     0
  0
CLASS
  1
MLEADERSTYLE
  2
AcDbMLeaderStyle
  3
ACDB_MLEADERSTYLE_CLASS
 90
       27
280
     0
281
     0
  0
CLASS
  1
SORTENTSTABLE
  2
AcDbSortentsTable
  3
"AutoCAD"
 90
        0
280
     0
281
     0
  0
CLASS
  1
LAYER_INDEX
  2
AcDbLayerIndex
  3
"Acad"
 90
        0
280
     0
281
     0
  0
CLASS
  1
SPATIAL_INDEX
  2
AcDbSpatialIndex
  3
"Acad"
 90
        0
280
     0
281
     0
  0
CLASS
  1
OBJECT_PTR
  2
CAseDLPNTableRecord
  3
"ASE-LPNTableRecord"
 90
        1
280
     0
281
     0
  0
CLASS
  1
LAYOUT
  2
AcDbLayout
  3
"AutoCAD 2000"
 90
        1
280
     0
281
     0
  0
CLASS
  1
PLOTSETTINGS
  2
AcDbPlotsettings
  3
"AutoCAD 2000"
 90
        1
280
     0
281
     0
  0
CLASS
  1
ACDBPLACEHOLDER
  2
AcDbPlaceholder
  3
"AutoCAD 2000"
 90
        1
280
     0
281
     0
  0
CLASS
  1
VBA_PROJECT
  2
AcDbVbaProject
  3
"AutoCAD 2000"
 90
        1
280
     0
281
     0
  0
CLASS
  1
WIPEOUT
  2
AcDbWipeout
  3
"AutoCAD 2000"
 90
        1
280
     0
281
     1
  0
CLASS
  1
WIPEOUTVARIABLES
  2
AcDbWipeoutVariables
  3
"AutoCAD 2000"
 90
        1
280
     0
281
     0
  0
CLASS
  1
RTEXT
  2
RText
  3
RText|AutoCAD Express Tool|expresstools@autodesk.com
 90
        1
280
     0
281
     1
  0
CLASS
  1
ARCALIGNEDTEXT
  2
AcDbArcAlignedText
  3
RText|AutoCAD Express Tool|expresstools@autodesk.com
 90
        1
280
     0
281
     1
  0
ENDSEC
  0
SECTION
  2
TABLES
  0
TABLE
  2
VPORT
  5
8
100
AcDbSymbolTable
 70
     1
  0
VPORT
  5
25
100
AcDbSymbolTableRecord
100
AcDbViewportTableRecord
  2
*ACTIVE
 70
     0
 10
0.0
 20
0.0
 11
1.0
 21
1.0
 12
4.25
 22
5.5
 13
0.0
 23
0.0
 14
0.5
 24
0.5
 15
0.5
 25
0.5
 16
0.0
 26
0.0
 36
1.0
 17
0.0
 27
0.0
 37
0.0
 40
11.0
 41
0.772727
 42
50.0
 43
0.0
 44
0.0
 50
0.0
 51
0.0
 71
     0
 72
   100
 73
     1
 74
     1
 75
     0
 76
     0
 77
     0
 78
     0
  0
ENDTAB
  0
TABLE
  2
LTYPE
  5
5
100
AcDbSymbolTable
 70
     3
  0
LTYPE
  5
12
100
AcDbSymbolTableRecord
100
AcDbLinetypeTableRecord
  2
BYBLOCK
 70
     0
  3

 72
    65
 73
     0
 40
0.0
  0
LTYPE
  5
13
100
AcDbSymbolTableRecord
100
AcDbLinetypeTableRecord
  2
BYLAYER
 70
     0
  3

 72
    65
 73
     0
 40
0.0
  0
LTYPE
  5
14
100
AcDbSymbolTableRecord
100
AcDbLinetypeTableRecord
  2
CONTINUOUS
 70
     0
  3
Solid line
 72
    65
 73
     0
 40
0.0
  0
ENDTAB
  0
TABLE
  2
LAYER
  5
2
100
AcDbSymbolTable
 70
     1
  0
LAYER
  5
E
100
AcDbSymbolTableRecord
100
AcDbLayerTableRecord
  2
0
 70
     0
 62
     7
  6
CONTINUOUS
  0
ENDTAB
  0
TABLE
  2
STYLE
  5
3
100
AcDbSymbolTable
 70
     1
  0
STYLE
  5
F
100
AcDbSymbolTableRecord
100
AcDbTextStyleTableRecord
  2
STANDARD
 70
     0
 40
0.0
 41
1.0
 50
0.0
 71
     0
 42
0.2
  3
txt.shx
  4

  0
ENDTAB
  0
TABLE
  2
VIEW
  5
6
100
AcDbSymbolTable
 70
     0
  0
ENDTAB
  0
TABLE
  2
UCS
  5
7
100
AcDbSymbolTable
 70
     0
  0
ENDTAB
  0
TABLE
  2
APPID
  5
9
100
AcDbSymbolTable
 70
     1
  0
APPID
  5
10
100
AcDbSymbolTableRecord
100
AcDbRegAppTableRecord
  2
ACAD
 70
     0
  0
ENDTAB
  0
TABLE
  2
DIMSTYLE
  5
A
100
AcDbSymbolTable
 70
     1
  0
DIMSTYLE
105
1D
100
AcDbSymbolTableRecord
100
AcDbDimStyleTableRecord
  2
STANDARD
 70
     0
  3

  4

  5

  6

  7

 40
1.0
 41
0.18
 42
0.0625
 43
0.38
 44
0.18
 45
0.0
 46
0.0
 47
0.0
 48
0.0
 71
     0
 72
     0
 73
     1
 74
     1
 75
     0
 76
     0
 77
     0
 78
     0
140
0.18
141
0.09
142
0.0
143
25.4
144
1.0
145
0.0
146
1.0
147
0.09
170
     0
171
     2
172
     0
173
     0
174
     0
175
     0
176
     0
177
     0
178
     0
270
     2
271
     4
272
     4
273
     2
274
     2
275
     0
280
     0
281
     0
282
     0
283
     1
284
     0
285
     0
286
     0
287
     3
288
     0
340
F
  0
ENDTAB
  0
TABLE
  2
BLOCK_RECORD
  5
1
100
AcDbSymbolTable
 70
     0
  0
BLOCK_RECORD
  5
18
100
AcDbSymbolTableRecord
100
AcDbBlockTableRecord
  2
*MODEL_SPACE
  0
BLOCK_RECORD
  5
15
100
AcDbSymbolTableRecord
100
AcDbBlockTableRecord
  2
*PAPER_SPACE
  0
ENDTAB
  0
ENDSEC
  0
SECTION
  2
BLOCKS
  0
BLOCK
  5
19
100
AcDbEntity
  8
0
100
AcDbBlockBegin
  2
*MODEL_SPACE
 70
     0
 10
0.0
 20
0.0
 30
0.0
  3
*MODEL_SPACE
  1

  0
ENDBLK
  5
1A
100
AcDbEntity
  8
0
100
AcDbBlockEnd
  0
BLOCK
  5
16
100
AcDbEntity
 67
     1
  8
0
100
AcDbBlockBegin
  2
*PAPER_SPACE
 70
     0
 10
0.0
 20
0.0
 30
0.0
  3
*PAPER_SPACE
  1

  0
ENDBLK
  5
17
100
AcDbEntity
 67
     1
  8
0
100
AcDbBlockEnd
  0
ENDSEC
  0
SECTION
  2
ENTITIES
  0
LINE
  5
75
102
{ACAD_REACTORS
330
A2
102
}
100
AcDbEntity
  8
0
  6
CONTINUOUS
 62
     7
100
AcDbLine
 10
4.928684
 20
1.659644
 30
0.0
 11
4.928684
 21
1.441632
 31
0.0
  0
LINE
  5
76
102
{ACAD_REACTORS
330
A2
102
}
100
AcDbEntity
  8
0
  6
CONTINUOUS
 62
     7
100
AcDbLine
 10
4.928684
 20
1.441632
 30
0.0
 11
4.928684
 21
0.725814
 31
0.0
  0
LINE
  5
77
102
{ACAD_REACTORS
330
A2
102
}
100
AcDbEntity
  8
0
  6
CONTINUOUS
 62
     7
100
AcDbLine
 10
4.928684
 20
0.725814
 30
0.0
 11
4.92868
 21
0.510506
 31
0.0
  0
LINE
  5
78
102
{ACAD_REACTORS
330
A2
102
}
100
AcDbEntity
  8
0
  6
CONTINUOUS
 62
     7
100
AcDbLine
 10
4.92868
 20
0.510506
 30
0.0
 11
4.92868
 21
0.509222
 31
0.0
  0
ARC
  5
79
102
{ACAD_REACTORS
330
A2
102
}
100
AcDbEntity
  8
0
  6
CONTINUOUS
 62
     7
100
AcDbCircle
 10
4.745863
 20
0.510507
 30
0.0
 40
0.182821
100
AcDbArc
 50
358.46106
 51
359.59733
  0
ARC
  5
7A
102
{ACAD_REACTORS
330
A2
102
}
100
AcDbEntity
  8
0
  6
CONTINUOUS
 62
     7
100
AcDbCircle
 10
4.745863
 20
0.510507
 30
0.0
 40
0.182821
100
AcDbArc
 50
270.000051
 51
358.46106
  0
LINE
  5
7B
102
{ACAD_REACTORS
330
A2
102
}
100
AcDbEntity
  8
0
  6
CONTINUOUS
 62
     7
100
AcDbLine
 10
4.745863
 20
0.327685
 30
0.0
 11
3.442021
 21
0.327685
 31
0.0
  0
LINE
  5
7C
102
{ACAD_REACTORS
330
A2
102
}
100
AcDbEntity
  8
0
  6
CONTINUOUS
 62
     7
100
AcDbLine
 10
3.442021
 20
0.327685
 30
0.0
 11
3.442021
 21
0.322774
 31
0.0
  0
LINE
  5
7D
102
{ACAD_REACTORS
330
A2
102
}
100
AcDbEntity
  8
0
  6
CONTINUOUS
 62
     7
100
AcDbLine
 10
3.442021
 20
0.322774
 30
0.0
 11
2.161673
 21
0.322774
 31
0.0
  0
ARC
  5
7E
102
{ACAD_REACTORS
330
A2
102
}
100
AcDbEntity
  8
0
  6
CONTINUOUS
 62
     7
100
AcDbCircle
 10
2.161673
 20
0.505595
 30
0.0
 40
0.182821
100
AcDbArc
 50
216.394955
 51
270.000003
  0
LINE
  5
7F
102
{ACAD_REACTORS
330
A2
102
}
100
AcDbEntity
  8
0
  6
CONTINUOUS
 62
     7
100
AcDbLine
 10
2.014512
 20
0.397119
 30
0.0
 11
2.014512
 21
1.507477
 31
0.0
  0
LINE
  5
80
102
{ACAD_REACTORS
330
A2
102
}
100
AcDbEntity
  8
0
  6
CONTINUOUS
 62
     7
100
AcDbLine
 10
2.014512
 20
1.507477
 30
0.0
 11
0.221326
 21
1.507477
 31
0.0
  0
ELLIPSE
  5
81
102
{ACAD_REACTORS
330
A2
102
}
100
AcDbEntity
  8
0
  6
CONTINUOUS
 62
     7
100
AcDbEllipse
 10
0.221326
 20
1.296317
 30
0.0
 11
0.2196593836826295
 21
0.0
 31
0.0
210
0.0
220
0.0
230
1.0
 40
0.961309
 41
1.5707963777166836
 42
3.1415925306548398
  0
LINE
  5
82
102
{ACAD_REACTORS
330
A2
102
}
100
AcDbEntity
  8
0
  6
CONTINUOUS
 62
     7
100
AcDbLine
 10
0.001667
 20
1.296317
 30
0.0
 11
0.001667
 21
0.212827
 31
0.0
  0
ELLIPSE
  5
83
102
{ACAD_REACTORS
330
A2
102
}
100
AcDbEntity
  8
0
  6
CONTINUOUS
 62
     7
100
AcDbEllipse
 10
0.221326
 20
0.212827
 30
0.0
 11
0.2196594106864354
 21
0.0
 31
0.0
210
0.0
220
0.0
230
1.0
 40
0.961309
 41
-3.1415924797335988
 42
-1.5707965006515627
  0
LINE
  5
84
102
{ACAD_REACTORS
330
A2
102
}
100
AcDbEntity
  8
0
  6
CONTINUOUS
 62
     7
100
AcDbLine
 10
0.221326
 20
0.001667
 30
0.0
 11
5.61432
 21
0.001667
 31
0.0
  0
LINE
  5
85
102
{ACAD_REACTORS
330
A2
102
}
100
AcDbEntity
  8
0
  6
CONTINUOUS
 62
     7
100
AcDbLine
 10
5.61432
 20
0.001667
 30
0.0
 11
5.61432
 21
0.006578
 31
0.0
  0
LINE
  5
86
102
{ACAD_REACTORS
330
A2
102
}
100
AcDbEntity
  8
0
  6
CONTINUOUS
 62
     7
100
AcDbLine
 10
5.61432
 20
0.006578
 30
0.0
 11
6.435073
 21
0.006578
 31
0.0
  0
ARC
  5
87
102
{ACAD_REACTORS
330
A2
102
}
100
AcDbEntity
  8
0
  6
CONTINUOUS
 62
     7
100
AcDbCircle
 10
6.435073
 20
0.429536
 30
0.0
 40
0.422958
100
AcDbArc
 50
270.0
 51
0.0
  0
LINE
  5
88
102
{ACAD_REACTORS
330
A2
102
}
100
AcDbEntity
  8
0
  6
CONTINUOUS
 62
     7
100
AcDbLine
 10
6.858031
 20
0.429536
 30
0.0
 11
6.858031
 21
3.578708
 31
0.0
  0
ARC
  5
89
102
{ACAD_REACTORS
330
A2
102
}
100
AcDbEntity
  8
0
  6
CONTINUOUS
 62
     7
100
AcDbCircle
 10
6.435073
 20
3.578708
 30
0.0
 40
0.422958
100
AcDbArc
 50
0.0
 51
89.999994
  0
LINE
  5
8A
102
{ACAD_REACTORS
330
A2
102
}
100
AcDbEntity
  8
0
  6
CONTINUOUS
 62
     7
100
AcDbLine
 10
6.435073
 20
4.001667
 30
0.0
 11
5.614323
 21
4.001667
 31
0.0
  0
LINE
  5
8B
102
{ACAD_REACTORS
330
A2
102
}
100
AcDbEntity
  8
0
  6
CONTINUOUS
 62
     7
100
AcDbLine
 10
5.614323
 20
4.001667
 30
0.0
 11
5.30163
 21
4.001667
 31
0.0
  0
LINE
  5
8C
102
{ACAD_REACTORS
330
A2
102
}
100
AcDbEntity
  8
0
  6
CONTINUOUS
 62
     7
100
AcDbLine
 10
5.30163
 20
4.001667
 30
0.0
 11
3.442021
 21
4.001667
 31
0.0
  0
LINE
  5
8D
102
{ACAD_REACTORS
330
A2
102
}
100
AcDbEntity
  8
0
  6
CONTINUOUS
 62
     7
100
AcDbLine
 10
3.442021
 20
4.001667
 30
0.0
 11
2.014515
 21
4.001666
 31
0.0
  0
LINE
  5
8E
102
{ACAD_REACTORS
330
A2
102
}
100
AcDbEntity
  8
0
  6
CONTINUOUS
 62
     7
100
AcDbLine
 10
2.014515
 20
4.001666
 30
0.0
 11
1.404831
 21
4.001667
 31
0.0
  0
LINE
  5
8F
102
{ACAD_REACTORS
330
A2
102
}
100
AcDbEntity
  8
0
  6
CONTINUOUS
 62
     7
100
AcDbLine
 10
1.404831
 20
4.001667
 30
0.0
 11
0.221329
 21
4.001667
 31
0.0
  0
ELLIPSE
  5
90
102
{ACAD_REACTORS
330
A2
102
}
100
AcDbEntity
  8
0
  6
CONTINUOUS
 62
     7
100
AcDbEllipse
 10
0.221329
 20
3.790506
 30
0.0
 11
0.219659383682515
 21
0.0
 31
0.0
210
0.0
220
0.0
230
1.0
 40
0.961309
 41
1.5707964497296032
 42
3.1415926026685046
  0
LINE
  5
91
102
{ACAD_REACTORS
330
A2
102
}
100
AcDbEntity
  8
0
  6
CONTINUOUS
 62
     7
100
AcDbLine
 10
0.00167
 20
3.790506
 30
0.0
 11
0.00167
 21
2.707016
 31
0.0
  0
ELLIPSE
  5
92
102
{ACAD_REACTORS
330
A2
102
}
100
AcDbEntity
  8
0
  6
CONTINUOUS
 62
     7
100
AcDbEllipse
 10
0.221329
 20
2.707016
 30
0.0
 11
0.2196593836824677
 21
0.0
 31
0.0
210
0.0
220
0.0
230
1.0
 40
0.961309
 41
-3.1415925306552182
 42
-1.570796377716005
  0
LINE
  5
93
102
{ACAD_REACTORS
330
A2
102
}
100
AcDbEntity
  8
0
  6
CONTINUOUS
 62
     7
100
AcDbLine
 10
0.221329
 20
2.495856
 30
0.0
 11
2.014515
 21
2.495856
 31
0.0
  0
LINE
  5
94
102
{ACAD_REACTORS
330
A2
102
}
100
AcDbEntity
  8
0
  6
CONTINUOUS
 62
     7
100
AcDbLine
 10
2.014515
 20
2.495856
 30
0.0
 11
2.014515
 21
2.707016
 31
0.0
  0
LINE
  5
95
102
{ACAD_REACTORS
330
A2
102
}
100
AcDbEntity
  8
0
  6
CONTINUOUS
 62
     7
100
AcDbLine
 10
2.014515
 20
2.707016
 30
0.0
 11
2.014515
 21
3.606215
 31
0.0
  0
ARC
  5
96
102
{ACAD_REACTORS
330
A2
102
}
100
AcDbEntity
  8
0
  6
CONTINUOUS
 62
     7
100
AcDbCircle
 10
2.161676
 20
3.497738
 30
0.0
 40
0.182821
100
AcDbArc
 50
89.999997
 51
143.605045
  0
LINE
  5
97
102
{ACAD_REACTORS
330
A2
102
}
100
AcDbEntity
  8
0
  6
CONTINUOUS
 62
     7
100
AcDbLine
 10
2.161676
 20
3.680559
 30
0.0
 11
3.442021
 21
3.680559
 31
0.0
  0
LINE
  5
98
102
{ACAD_REACTORS
330
A2
102
}
100
AcDbEntity
  8
0
  6
CONTINUOUS
 62
     7
100
AcDbLine
 10
3.442021
 20
3.680559
 30
0.0
 11
4.745863
 21
3.680559
 31
0.0
  0
ARC
  5
99
102
{ACAD_REACTORS
330
A2
102
}
100
AcDbEntity
  8
0
  6
CONTINUOUS
 62
     7
100
AcDbCircle
 10
4.745863
 20
3.497738
 30
0.0
 40
0.182821
100
AcDbArc
 50
0.0
 51
89.999789
  0
LINE
  5
9A
102
{ACAD_REACTORS
330
A2
102
}
100
AcDbEntity
  8
0
  6
CONTINUOUS
 62
     7
100
AcDbLine
 10
4.928683
 20
3.497738
 30
0.0
 11
4.928683
 21
3.277519
 31
0.0
  0
LINE
  5
9B
102
{ACAD_REACTORS
330
A2
102
}
100
AcDbEntity
  8
0
  6
CONTINUOUS
 62
     7
100
AcDbLine
 10
4.928683
 20
3.277519
 30
0.0
 11
4.928684
 21
2.566612
 31
0.0
  0
LINE
  5
9C
102
{ACAD_REACTORS
330
A2
102
}
100
AcDbEntity
  8
0
  6
CONTINUOUS
 62
     7
100
AcDbLine
 10
4.928684
 20
2.566612
 30
0.0
 11
4.928684
 21
2.3486
 31
0.0
  0
ARC
  5
9D
102
{ACAD_REACTORS
330
A2
102
}
100
AcDbEntity
  8
0
  6
CONTINUOUS
 62
     7
100
AcDbCircle
 10
4.745863
 20
2.3486
 30
0.0
 40
0.182821
100
AcDbArc
 50
269.999992
 51
0.0
  0
LINE
  5
9E
102
{ACAD_REACTORS
330
A2
102
}
100
AcDbEntity
  8
0
  6
CONTINUOUS
 62
     7
100
AcDbLine
 10
4.745863
 20
2.165779
 30
0.0
 11
3.442021
 21
2.165779
 31
0.0
  0
LINE
  5
9F
102
{ACAD_REACTORS
330
A2
102
}
100
AcDbEntity
  8
0
  6
CONTINUOUS
 62
     7
100
AcDbLine
 10
3.442021
 20
2.165779
 30
0.0
 11
3.442021
 21
1.842465
 31
0.0
  0
LINE
  5
A0
102
{ACAD_REACTORS
330
A2
102
}
100
AcDbEntity
  8
0
  6
CONTINUOUS
 62
     7
100
AcDbLine
 10
3.442021
 20
1.842465
 30
0.0
 11
4.745863
 21
1.842465
 31
0.0
  0
ARC
  5
A1
102
{ACAD_REACTORS
330
A2
102
}
100
AcDbEntity
  8
0
  6
CONTINUOUS
 62
     7
100
AcDbCircle
 10
4.745863
 20
1.659644
 30
0.0
 40
0.182821
100
AcDbArc
 50
0.0
 51
90.000008
  0
HATCH
  5
A2
102
{ACAD_REACTORS
330
74
102
}
100
AcDbEntity
  8
0
 62
     7
100
AcDbHatch
 10
0.0
 20
0.0
 30
0.0
210
0.0
220
0.0
230
1.0
  2
SOLID
 70
     1
 71
     1
 91
        1
 92
        1
 93
       45
 72
     1
 10
4.9286840688748406
 20
1.6596440451323786
 11
4.9286840855215477
 21
1.4416322184009018
 72
     1
 10
4.9286840855215477
 20
1.4416322184009018
 11
4.9286842805303284
 21
0.7258141947448046
 72
     1
 10
4.9286842805303284
 20
0.7258141947448046
 11
4.9286797821619333
 21
0.5105062961040722
 72
     1
 10
4.9286797821619333
 20
0.5105062961040722
 11
4.9286797820638562
 21
0.5092218424334222
 72
     2
 10
4.7458630320270654
 20
0.5105066854984827
 40
0.1828212649439782
 50
358.46106
 51
359.59733
 73
     1
 72
     2
 10
4.745863032718181
 20
0.5105066854881919
 40
0.1828212642528355
 50
270.000051
 51
358.46106
 73
     1
 72
     1
 10
4.745863194006577
 20
0.3276854212354294
 11
3.4420210731175582
 21
0.3276854060290578
 72
     1
 10
3.4420210731175582
 20
0.3276854060290578
 11
3.4420210731175582
 21
0.3227742561619028
 72
     1
 10
3.4420210731175582
 20
0.3227742561619028
 11
2.1616729233658734
 21
0.3227742486278261
 72
     2
 10
2.1616729126132954
 20
0.5055950975371297
 40
0.1828208489093057
 50
216.394955
 51
270.000003
 73
     1
 72
     1
 10
2.0145119935403648
 20
0.3971187098136749
 11
2.0145119935403715
 21
1.5074773321932597
 72
     1
 10
2.0145119935403715
 20
1.5074773321932597
 11
0.221326039163847
 21
1.5074773321932597
 72
     3
 10
0.2213260503492953
 20
1.2963168745831057
 11
0.2196593836826295
 21
0.0
 40
0.961309
 50
90.000003
 51
179.999993
 73
     1
 72
     1
 10
0.0016666666666675
 20
1.2963169005421067
 11
0.0016666666666669
 21
0.212827113524251
 72
     3
 10
0.221326077353099
 20
0.2128271502358091
 11
0.2196594106864354
 21
0.0
 40
0.961309
 50
180.00001
 51
269.99999
 73
     1
 72
     1
 10
0.2213260391638462
 20
0.001666666666667
 11
5.6143199715267968
 21
0.0016667238833529
 72
     1
 10
5.6143199715267968
 20
0.0016667238833529
 11
5.6143199715267968
 21
0.0065775535350455
 72
     1
 10
5.6143199715267968
 20
0.0065775535350455
 11
6.4350728050230233
 21
0.0065775535350455
 72
     2
 10
6.4350728042379508
 20
0.4295358387540113
 40
0.4229582852189701
 50
270.0
 51
360.0
 73
     1
 72
     1
 10
6.8580310894569205
 20
0.4295358384288669
 11
6.8580311502824793
 21
3.578708264190634
 72
     2
 10
6.4350727620128367
 20
3.5787081603548985
 40
0.4229583882696553
 50
0.000014
 51
89.999994
 73
     1
 72
     1
 10
6.435072805023049
 20
4.0016665486245468
 11
5.614323285406245
 21
4.0016665653040349
 72
     1
 10
5.614323285406245
 20
4.0016665653040349
 11
5.3016301442496241
 21
4.0016665716586601
 72
     1
 10
5.3016301442496241
 20
4.0016665716586601
 11
3.4420210731175582
 21
4.0016666094500897
 72
     1
 10
3.4420210731175582
 20
4.0016666094500897
 11
2.0145153074198197
 21
4.0016661743849404
 72
     1
 10
2.0145153074198197
 20
4.0016661743849404
 11
1.4048307483609337
 21
4.0016666666666669
 72
     1
 10
1.4048307483609337
 20
4.0016666666666669
 11
0.2213293530432954
 21
4.0016666666666669
 72
     3
 10
0.2213293800470573
 20
3.7905062090566242
 11
0.219659383682515
 21
0.0
 40
0.961309
 50
90.000007
 51
179.999997
 73
     1
 72
     1
 10
0.0016699963645425
 20
3.7905062198091866
 11
0.0016699805461261
 21
2.7070164327913413
 72
     3
 10
0.2213293642285922
 20
2.7070164587502621
 11
0.2196593836824677
 21
0.0
 40
0.961309
 50
180.000007
 51
269.999997
 73
     1
 72
     1
 10
0.2213293530432929
 20
2.4958560011402637
 11
2.0145153074198197
 21
2.495856001140254
 72
     1
 10
2.0145153074198197
 20
2.495856001140254
 11
2.0145153074198197
 21
2.7070164327913395
 72
     1
 10
2.0145153074198197
 20
2.7070164327913395
 11
2.0145153074198197
 21
3.6062146235197674
 72
     2
 10
2.1616762264928262
 20
3.4977382357961853
 40
0.1828208489094422
 50
89.999997
 51
143.605045
 73
     1
 72
     1
 10
2.161676237245322
 20
3.6805590847056253
 11
3.4420210731175582
 21
3.6805590771715617
 72
     1
 10
3.4420210731175582
 20
3.6805590771715617
 11
4.7458631940065494
 21
3.6805589094797853
 72
     2
 10
4.7458625199252724
 20
3.4977383337398482
 40
0.1828205757411815
 50
359.999961
 51
89.999789
 73
     1
 72
     1
 10
4.9286830956664121
 20
3.4977382098373471
 11
4.9286831124816208
 21
3.2775191385886377
 72
     1
 10
4.9286831124816208
 20
3.2775191385886377
 11
4.9286841399727335
 21
2.566611944584237
 72
     1
 10
4.9286841399727335
 20
2.566611944584237
 11
4.9286840688748406
 21
2.3486001178527567
 72
     2
 10
4.7458632199654556
 20
2.3486001071002525
 40
0.1828208489093853
 50
269.999992
 51
0.000003
 73
     1
 72
     1
 10
4.745863194006577
 20
2.165779258190871
 11
3.44202107311756
 21
2.1657792581908515
 72
     1
 10
3.44202107311756
 20
2.1657792581908515
 11
3.44202107311756
 21
1.8424649047942838
 72
     1
 10
3.44202107311756
 20
1.8424649047942838
 11
4.745863194006553
 21
1.8424649047942858
 72
     2
 10
4.7458632199654289
 20
1.6596440558848937
 40
0.1828208489093957
 50
359.999997
 51
90.000008
 73
     1
 97
       45
330
75
330
76
330
77
330
78
330
79
330
7A
330
7B
330
7C
330
7D
330
7E
330
7F
330
80
330
81
330
82
330
83
330
84
330
85
330
86
330
87
330
88
330
89
330
8A
330
8B
330
8C
330
8D
330
8E
330
8F
330
90
330
91
330
92
330
93
330
94
330
95
330
96
330
97
330
98
330
99
330
9A
330
9B
330
9C
330
9D
330
9E
330
9F
330
A0
330
A1
 75
     0
 76
     1
 98
        0
  0
ENDSEC
  0
SECTION
  2
OBJECTS
  0
DICTIONARY
  5
C
100
AcDbDictionary
  3
ACAD_GROUP
350
D
  3
ACAD_MLINESTYLE
350
1B
  3
ACAD_SCALELIST
350
2C
  3
ACAD_VISUALSTYLE
350
51
  3
ACAD_MATERIAL
350
6A
  3
ACAD_TABLESTYLE
350
6E
  3
ACAD_MLEADERSTYLE
350
70
  0
DICTIONARY
  5
D
102
{ACAD_REACTORS
330
C
102
}
100
AcDbDictionary
  3
VISIOGROUP_0
350
74
  0
DICTIONARY
  5
1B
102
{ACAD_REACTORS
330
C
102
}
100
AcDbDictionary
  3
STANDARD
350
1C
  0
MLINESTYLE
  5
1C
102
{ACAD_REACTORS
330
1B
102
}
100
AcDbMlineStyle
  2
STANDARD
 70
     0
  3

 62
   256
 51
90.0
 52
90.0
 71
     2
 49
0.5
 62
   256
  6
BYLAYER
 49
-0.5
 62
   256
  6
BYLAYER
  0
DICTIONARY
  5
29
102
{ACAD_REACTORS
330
C
102
}
100
AcDbDictionary
  0
DICTIONARY
  5
2C
102
{ACAD_REACTORS
330
C
102
}
100
AcDbDictionary
  3
A0
350
2D
  3
A1
350
2E
  3
A2
350
2F
  3
A3
350
30
  3
A4
350
31
  3
A5
350
32
  3
A6
350
33
  3
A7
350
34
  3
A8
350
35
  3
A9
350
36
  3
B0
350
37
  3
B1
350
38
  3
B2
350
39
  3
B3
350
3A
  3
B4
350
3B
  3
B5
350
3C
  3
B6
350
3D
  3
B7
350
3E
  3
B8
350
3F
  3
B9
350
40
  3
C0
350
41
  3
C1
350
42
  3
C2
350
43
  3
C3
350
44
  3
C4
350
45
  3
C5
350
46
  3
C6
350
47
  3
C7
350
48
  3
C8
350
49
  3
C9
350
4A
  3
D0
350
4B
  3
D1
350
4C
  3
D2
350
4D
  0
DICTIONARY
  5
4E
102
{ACAD_REACTORS
330
C
102
}
100
AcDbDictionary
  3
MODEL
350
4F
  3
LAYOUT1
350
50
  0
DICTIONARY
  5
51
102
{ACAD_REACTORS
330
C
102
}
100
AcDbDictionary
  3
FLAT
350
52
  3
FLATWITHEDGES
350
53
  3
GOURAUD
350
54
  3
GOURAUDWITHEDGES
350
55
  3
2DWIREFRAME
350
56
  3
WIREFRAME
350
57
  3
HIDDEN
350
58
  3
BASIC
350
59
  3
REALISTIC
350
5A
  3
CONCEPTUAL
350
5B
  3
DIM
350
5C
  3
BRIGHTEN
350
5D
  3
THICKEN
350
5E
  3
LINEPATTERN
350
5F
  3
FACEPATTERN
350
60
  3
COLORCHANGE
350
61
  3
JITTEROFF
350
62
  3
OVERHANGOFF
350
63
  3
EDGECOLOROFF
350
64
  3
SHADES OF GRAY
350
65
  3
SKETCHY
350
66
  3
X-RAY
350
67
  3
SHADED WITH EDGES
350
68
  3
SHADED
350
69
  0
DICTIONARY
  5
6A
102
{ACAD_REACTORS
330
C
102
}
100
AcDbDictionary
  3
BYLAYER
350
6B
  3
BYBLOCK
350
6C
  3
GLOBAL
350
6D
  0
DICTIONARY
  5
6E
102
{ACAD_REACTORS
330
C
102
}
100
AcDbDictionary
  3
STANDARD
350
6F
  0
DICTIONARY
  5
70
102
{ACAD_REACTORS
330
C
102
}
100
AcDbDictionary
  3
STANDARD
350
71
  0
GROUP
  5
74
102
{ACAD_REACTORS
330
D
102
}
100
AcDbGroup
300
Group created by Visio.
 70
     0
 71
     1
340
75
340
76
340
77
340
78
340
79
340
7A
340
7B
340
7C
340
7D
340
7E
340
7F
340
80
340
81
340
82
340
83
340
84
340
85
340
86
340
87
340
88
340
89
340
8A
340
8B
340
8C
340
8D
340
8E
340
8F
340
90
340
91
340
92
340
93
340
94
340
95
340
96
340
97
340
98
340
99
340
9A
340
9B
340
9C
340
9D
340
9E
340
9F
340
A0
340
A1
340
A2
  0
ENDSEC
  0
EOF
