  0
SECTION
  2
HEADER
  9
$ACADVER
  1
AC1014
  9
$ACADMAINTVER
 70
     0
  9
$DWGCODEPAGE
  3
ANSI_1252
  9
$INSBASE
 10
0.0
 20
0.0
 30
0.0
  9
$EXTMIN
 10
0.0
 20
0.0
 30
0.0
  9
$EXTMAX
 10
8.5
 20
11.0
 30
0.0
  9
$LIMMIN
 10
0.0
 20
0.0
  9
$LIMMAX
 10
12.0
 20
9.0
  9
$ORTHOMODE
 70
     0
  9
$REGENMODE
 70
     1
  9
$FILLMODE
 70
     0
  9
$QTEXTMODE
 70
     0
  9
$MIRRTEXT
 70
     1
  9
$DRAGMODE
 70
     2
  9
$LTSCALE
 40
1.0
  9
$OSMODE
 70
    37
  9
$ATTMODE
 70
     1
  9
$TEXTSIZE
 40
0.2
  9
$TRACEWID
 40
0.05
  9
$TEXTSTYLE
  7
STANDARD
  9
$CLAYER
  8
0
  9
$CELTYPE
  6
BYLAYER
  9
$CECOLOR
 62
   256
  9
$CELTSCALE
 40
1.0
  9
$DELOBJ
 70
     1
  9
$DISPSILH
 70
     0
  9
$DIMSCALE
 40
1.0
  9
$DIMASZ
 40
0.18
  9
$DIMEXO
 40
0.0625
  9
$DIMDLI
 40
0.38
  9
$DIMRND
 40
0.0
  9
$DIMDLE
 40
0.0
  9
$DIMEXE
 40
0.18
  9
$DIMTP
 40
0.0
  9
$DIMTM
 40
0.0
  9
$DIMTXT
 40
0.18
  9
$DIMCEN
 40
0.09
  9
$DIMTSZ
 40
0.0
  9
$DIMTOL
 70
     0
  9
$DIMLIM
 70
     0
  9
$DIMTIH
 70
     0
  9
$DIMTOH
 70
     0
  9
$DIMSE1
 70
     0
  9
$DIMSE2
 70
     0
  9
$DIMTAD
 70
     1
  9
$DIMZIN
 70
     0
  9
$DIMBLK
  1

  9
$DIMASO
 70
     1
  9
$DIMSHO
 70
     1
  9
$DIMPOST
  1

  9
$DIMAPOST
  1

  9
$DIMALT
 70
     0
  9
$DIMALTD
 70
     2
  9
$DIMALTF
 40
25.4
  9
$DIMLFAC
 40
1.0
  9
$DIMTOFL
 70
     0
  9
$DIMTVP
 40
0.0
  9
$DIMTIX
 70
     0
  9
$DIMSOXD
 70
     0
  9
$DIMSAH
 70
     0
  9
$DIMBLK1
  1

  9
$DIMBLK2
  1

  9
$DIMSTYLE
  2
STANDARD
  9
$DIMCLRD
 70
     0
  9
$DIMCLRE
 70
     0
  9
$DIMCLRT
 70
     0
  9
$DIMTFAC
 40
1.0
  9
$DIMGAP
 40
0.09
  9
$DIMJUST
 70
     0
  9
$DIMSD1
 70
     0
  9
$DIMSD2
 70
     0
  9
$DIMTOLJ
 70
     1
  9
$DIMTZIN
 70
     0
  9
$DIMALTZ
 70
     0
  9
$DIMALTTZ
 70
     0
  9
$DIMFIT
 70
     5
  9
$DIMUPT
 70
     0
  9
$DIMUNIT
 70
     2
  9
$DIMDEC
 70
     2
  9
$DIMTDEC
 70
     4
  9
$DIMALTU
 70
     2
  9
$DIMALTTD
 70
     2
  9
$DIMTXSTY
  7
STANDARD
  9
$DIMAUNIT
 70
     0
  9
$LUNITS
 70
     2
  9
$LUPREC
 70
     4
  9
$SKETCHINC
 40
0.1
  9
$FILLETRAD
 40
0.5
  9
$AUNITS
 70
     0
  9
$AUPREC
 70
     0
  9
$MENU
  1
.
  9
$ELEVATION
 40
0.0
  9
$PELEVATION
 40
0.0
  9
$THICKNESS
 40
0.0
  9
$LIMCHECK
 70
     0
  9
$BLIPMODE
 70
     0
  9
$CHAMFERA
 40
0.5
  9
$CHAMFERB
 40
0.5
  9
$CHAMFERC
 40
1.0
  9
$CHAMFERD
 40
0.0
  9
$SKPOLY
 70
     0
  9
$TDCREATE
 40
2450772.666465926
  9
$TDUPDATE
 40
2461020.524398136
  9
$TDINDWG
 40
0.0011564931
  9
$TDUSRTIMER
 40
0.0011564931
  9
$USRTIMER
 70
     1
  9
$ANGBASE
 50
0.0
  9
$ANGDIR
 70
     0
  9
$PDMODE
 70
     0
  9
$PDSIZE
 40
0.0
  9
$PLINEWID
 40
0.0
  9
$COORDS
 70
     1
  9
$SPLFRAME
 70
     0
  9
$SPLINETYPE
 70
     6
  9
$SPLINESEGS
 70
     8
  9
$ATTDIA
 70
     0
  9
$ATTREQ
 70
     1
  9
$HANDLING
 70
     1
  9
$HANDSEED
  5
97
  9
$SURFTAB1
 70
     6
  9
$SURFTAB2
 70
     6
  9
$SURFTYPE
 70
     6
  9
$SURFU
 70
     6
  9
$SURFV
 70
     6
  9
$UCSNAME
  2

  9
$UCSORG
 10
0.0
 20
0.0
 30
0.0
  9
$UCSXDIR
 10
1.0
 20
0.0
 30
0.0
  9
$UCSYDIR
 10
0.0
 20
1.0
 30
0.0
  9
$PUCSNAME
  2

  9
$PUCSORG
 10
0.0
 20
0.0
 30
0.0
  9
$PUCSXDIR
 10
1.0
 20
0.0
 30
0.0
  9
$PUCSYDIR
 10
0.0
 20
1.0
 30
0.0
  9
$USERI1
 70
     0
  9
$USERI2
 70
     0
  9
$USERI3
 70
     0
  9
$USERI4
 70
     0
  9
$USERI5
 70
     0
  9
$USERR1
 40
0.0
  9
$USERR2
 40
0.0
  9
$USERR3
 40
0.0
  9
$USERR4
 40
0.0
  9
$USERR5
 40
0.0
  9
$WORLDVIEW
 70
     1
  9
$SHADEDGE
 70
     3
  9
$SHADEDIF
 70
    70
  9
$TILEMODE
 70
     1
  9
$MAXACTVP
 70
    48
  9
$PINSBASE
 10
0.0
 20
0.0
 30
0.0
  9
$PLIMCHECK
 70
     0
  9
$PEXTMIN
 10
0.0
 20
0.0
 30
0.0
  9
$PEXTMAX
 10
0.0
 20
0.0
 30
0.0
  9
$PLIMMIN
 10
0.0
 20
0.0
  9
$PLIMMAX
 10
12.0
 20
9.0
  9
$UNITMODE
 70
     0
  9
$VISRETAIN
 70
     1
  9
$PLINEGEN
 70
     0
  9
$PSLTSCALE
 70
     1
  9
$TREEDEPTH
 70
  3020
  9
$PICKSTYLE
 70
     1
  9
$CMLSTYLE
  2
STANDARD
  9
$CMLJUST
 70
     0
  9
$CMLSCALE
 40
1.0
  9
$PROXYGRAPHICS
 70
     1
  9
$MEASUREMENT
 70
     0
  0
ENDSEC
  0
SECTION
  2
CLASSES
  0
CLASS
  1
LWPOLYLINE
  2
AcDbPolyline
  3
ObjectDBX Classes
 90
       20
280
     0
281
     1
  0
CLASS
  1
IMAGE
  2
AcDbRasterImage
  3
ISM
 90
       21
280
     0
281
     1
  0
CLASS
  1
OLE2FRAME
  2
AcDbOle2Frame
  3
ObjectDBX Classes
 90
       21
280
     0
281
     1
  0
CLASS
  1
HATCH
  2
AcDbHatch
  3
ObjectDBX Classes
 90
       20
280
     0
281
     1
  0
CLASS
  1
DICTIONARYVAR
  2
AcDbDictionaryVar
  3
ObjectDBX Classes
 90
       20
280
     0
281
     0
  0
CLASS
  1
RASTERVARIABLES
  2
AcDbRasterVariables
  3
ISM
 90
       21
280
     0
281
     0
  0
CLASS
  1
IMAGEDEF
  2
AcDbRasterImageDef
  3
ISM
 90
       21
280
     0
281
     0
  0
CLASS
  1
IMAGEDEF_REACTOR
  2
AcDbRasterImageDefReactor
  3
ISM
 90
       21
280
     0
281
     0
  0
CLASS
  1
IDBUFFER
  2
AcDbIdBuffer
  3
ObjectDBX Classes
 90
       20
280
     0
281
     0
  0
CLASS
  1
SPATIAL_FILTER
  2
AcDbSpatialFilter
  3
ObjectDBX Classes
 90
       20
280
     0
281
     0
  0
CLASS
  1
XRECORD
  2
AcDbXrecord
  3
ObjectDBX Classes
 90
       21
280
     0
281
     0
  0
CLASS
  1
ACDBDICTIONARYWDFLT
  2
AcDbDictionaryWithDefault
  3
ObjectDBX Classes
 90
       22
280
     0
281
     0
  0
CLASS
  1
SCALE
  2
AcDbScale
  3
ObjectDBX Classes
 90
       27
280
     0
281
     0
  0
CLASS
  1
VISUALSTYLE
  2
AcDbVisualStyle
  3
ObjectDBX Classes
 90
       26
280
     0
281
     0
  0
CLASS
  1
MATERIAL
  2
AcDbMaterial
  3
ObjectDBX Classes
 90
       23
280
     0
281
     0
  0
CLASS
  1
TABLESTYLE
  2
AcDbTableStyle
  3
ObjectDBX Classes
 90
       25
280
     0
281
     0
  0
CLASS
  1
MLEADERSTYLE
  2
AcDbMLeaderStyle
  3
ACDB_MLEADERSTYLE_CLASS
 90
       27
280
     0
281
     0
  0
CLASS
  1
SORTENTSTABLE
  2
AcDbSortentsTable
  3
"AutoCAD"
 90
        0
280
     0
281
     0
  0
CLASS
  1
LAYER_INDEX
  2
AcDbLayerIndex
  3
"Acad"
 90
        0
280
     0
281
     0
  0
CLASS
  1
SPATIAL_INDEX
  2
AcDbSpatialIndex
  3
"Acad"
 90
        0
280
     0
281
     0
  0
CLASS
  1
OBJECT_PTR
  2
CAseDLPNTableRecord
  3
"ASE-LPNTableRecord"
 90
        1
280
     0
281
     0
  0
CLASS
  1
LAYOUT
  2
AcDbLayout
  3
"AutoCAD 2000"
 90
        1
280
     0
281
     0
  0
CLASS
  1
PLOTSETTINGS
  2
AcDbPlotsettings
  3
"AutoCAD 2000"
 90
        1
280
     0
281
     0
  0
CLASS
  1
ACDBPLACEHOLDER
  2
AcDbPlaceholder
  3
"AutoCAD 2000"
 90
        1
280
     0
281
     0
  0
CLASS
  1
VBA_PROJECT
  2
AcDbVbaProject
  3
"AutoCAD 2000"
 90
        1
280
     0
281
     0
  0
CLASS
  1
WIPEOUT
  2
AcDbWipeout
  3
"AutoCAD 2000"
 90
        1
280
     0
281
     1
  0
CLASS
  1
WIPEOUTVARIABLES
  2
AcDbWipeoutVariables
  3
"AutoCAD 2000"
 90
        1
280
     0
281
     0
  0
CLASS
  1
RTEXT
  2
RText
  3
RText|AutoCAD Express Tool|expresstools@autodesk.com
 90
        1
280
     0
281
     1
  0
CLASS
  1
ARCALIGNEDTEXT
  2
AcDbArcAlignedText
  3
RText|AutoCAD Express Tool|expresstools@autodesk.com
 90
        1
280
     0
281
     1
  0
ENDSEC
  0
SECTION
  2
TABLES
  0
TABLE
  2
VPORT
  5
8
100
AcDbSymbolTable
 70
     1
  0
VPORT
  5
25
100
AcDbSymbolTableRecord
100
AcDbViewportTableRecord
  2
*ACTIVE
 70
     0
 10
0.0
 20
0.0
 11
1.0
 21
1.0
 12
4.25
 22
5.5
 13
0.0
 23
0.0
 14
0.5
 24
0.5
 15
0.5
 25
0.5
 16
0.0
 26
0.0
 36
1.0
 17
0.0
 27
0.0
 37
0.0
 40
11.0
 41
0.772727
 42
50.0
 43
0.0
 44
0.0
 50
0.0
 51
0.0
 71
     0
 72
   100
 73
     1
 74
     1
 75
     0
 76
     0
 77
     0
 78
     0
  0
ENDTAB
  0
TABLE
  2
LTYPE
  5
5
100
AcDbSymbolTable
 70
     3
  0
LTYPE
  5
12
100
AcDbSymbolTableRecord
100
AcDbLinetypeTableRecord
  2
BYBLOCK
 70
     0
  3

 72
    65
 73
     0
 40
0.0
  0
LTYPE
  5
13
100
AcDbSymbolTableRecord
100
AcDbLinetypeTableRecord
  2
BYLAYER
 70
     0
  3

 72
    65
 73
     0
 40
0.0
  0
LTYPE
  5
14
100
AcDbSymbolTableRecord
100
AcDbLinetypeTableRecord
  2
CONTINUOUS
 70
     0
  3
Solid line
 72
    65
 73
     0
 40
0.0
  0
ENDTAB
  0
TABLE
  2
LAYER
  5
2
100
AcDbSymbolTable
 70
     1
  0
LAYER
  5
E
100
AcDbSymbolTableRecord
100
AcDbLayerTableRecord
  2
0
 70
     0
 62
     7
  6
CONTINUOUS
  0
ENDTAB
  0
TABLE
  2
STYLE
  5
3
100
AcDbSymbolTable
 70
     1
  0
STYLE
  5
F
100
AcDbSymbolTableRecord
100
AcDbTextStyleTableRecord
  2
STANDARD
 70
     0
 40
0.0
 41
1.0
 50
0.0
 71
     0
 42
0.2
  3
txt.shx
  4

  0
ENDTAB
  0
TABLE
  2
VIEW
  5
6
100
AcDbSymbolTable
 70
     0
  0
ENDTAB
  0
TABLE
  2
UCS
  5
7
100
AcDbSymbolTable
 70
     0
  0
ENDTAB
  0
TABLE
  2
APPID
  5
9
100
AcDbSymbolTable
 70
     1
  0
APPID
  5
10
100
AcDbSymbolTableRecord
100
AcDbRegAppTableRecord
  2
ACAD
 70
     0
  0
ENDTAB
  0
TABLE
  2
DIMSTYLE
  5
A
100
AcDbSymbolTable
 70
     1
  0
DIMSTYLE
105
1D
100
AcDbSymbolTableRecord
100
AcDbDimStyleTableRecord
  2
STANDARD
 70
     0
  3

  4

  5

  6

  7

 40
1.0
 41
0.18
 42
0.0625
 43
0.38
 44
0.18
 45
0.0
 46
0.0
 47
0.0
 48
0.0
 71
     0
 72
     0
 73
     1
 74
     1
 75
     0
 76
     0
 77
     0
 78
     0
140
0.18
141
0.09
142
0.0
143
25.4
144
1.0
145
0.0
146
1.0
147
0.09
170
     0
171
     2
172
     0
173
     0
174
     0
175
     0
176
     0
177
     0
178
     0
270
     2
271
     4
272
     4
273
     2
274
     2
275
     0
280
     0
281
     0
282
     0
283
     1
284
     0
285
     0
286
     0
287
     3
288
     0
340
F
  0
ENDTAB
  0
TABLE
  2
BLOCK_RECORD
  5
1
100
AcDbSymbolTable
 70
     0
  0
BLOCK_RECORD
  5
18
100
AcDbSymbolTableRecord
100
AcDbBlockTableRecord
  2
*MODEL_SPACE
  0
BLOCK_RECORD
  5
15
100
AcDbSymbolTableRecord
100
AcDbBlockTableRecord
  2
*PAPER_SPACE
  0
ENDTAB
  0
ENDSEC
  0
SECTION
  2
BLOCKS
  0
BLOCK
  5
19
100
AcDbEntity
  8
0
100
AcDbBlockBegin
  2
*MODEL_SPACE
 70
     0
 10
0.0
 20
0.0
 30
0.0
  3
*MODEL_SPACE
  1

  0
ENDBLK
  5
1A
100
AcDbEntity
  8
0
100
AcDbBlockEnd
  0
BLOCK
  5
16
100
AcDbEntity
 67
     1
  8
0
100
AcDbBlockBegin
  2
*PAPER_SPACE
 70
     0
 10
0.0
 20
0.0
 30
0.0
  3
*PAPER_SPACE
  1

  0
ENDBLK
  5
17
100
AcDbEntity
 67
     1
  8
0
100
AcDbBlockEnd
  0
ENDSEC
  0
SECTION
  2
ENTITIES
  0
LINE
  5
74
102
{ACAD_REACTORS
330
96
102
}
100
AcDbEntity
  8
0
  6
CONTINUOUS
 62
     7
100
AcDbLine
 10
1.892292
 20
2.300378
 30
0.0
 11
1.892288
 21
2.301493
 31
0.0
  0
LINE
  5
75
102
{ACAD_REACTORS
330
96
102
}
100
AcDbEntity
  8
0
  6
CONTINUOUS
 62
     7
100
AcDbLine
 10
1.892288
 20
2.301493
 30
0.0
 11
1.892288
 21
2.711523
 31
0.0
  0
LINE
  5
76
102
{ACAD_REACTORS
330
96
102
}
100
AcDbEntity
  8
0
  6
CONTINUOUS
 62
     7
100
AcDbLine
 10
1.892288
 20
2.711523
 30
0.0
 11
1.892289
 21
3.427565
 31
0.0
  0
ARC
  5
77
102
{ACAD_REACTORS
330
96
102
}
100
AcDbEntity
  8
0
  6
CONTINUOUS
 62
     7
100
AcDbCircle
 10
2.07144
 20
3.427566
 30
0.0
 40
0.179151
100
AcDbArc
 50
90.000211
 51
180.000039
  0
LINE
  5
78
102
{ACAD_REACTORS
330
96
102
}
100
AcDbEntity
  8
0
  6
CONTINUOUS
 62
     7
100
AcDbLine
 10
2.071439
 20
3.606717
 30
0.0
 11
4.603757
 21
3.606717
 31
0.0
  0
ARC
  5
79
102
{ACAD_REACTORS
330
96
102
}
100
AcDbEntity
  8
0
  6
CONTINUOUS
 62
     7
100
AcDbCircle
 10
4.603757
 20
3.427565
 30
0.0
 40
0.179151
100
AcDbArc
 50
36.394955
 51
90.000003
  0
LINE
  5
7A
102
{ACAD_REACTORS
330
96
102
}
100
AcDbEntity
  8
0
  6
CONTINUOUS
 62
     7
100
AcDbLine
 10
4.747964
 20
3.533864
 30
0.0
 11
4.747964
 21
2.445793
 31
0.0
  0
LINE
  5
7B
102
{ACAD_REACTORS
330
96
102
}
100
AcDbEntity
  8
0
  6
CONTINUOUS
 62
     7
100
AcDbLine
 10
4.747964
 20
2.445793
 30
0.0
 11
6.505157
 21
2.445793
 31
0.0
  0
ELLIPSE
  5
7C
102
{ACAD_REACTORS
330
96
102
}
100
AcDbEntity
  8
0
  6
CONTINUOUS
 62
     7
100
AcDbEllipse
 10
6.505157
 20
2.652715
 30
0.0
 11
0.2152504012576773
 21
-0.0000000000000008
 31
0.0
210
0.0
220
0.0
230
1.0
 40
0.961309
 41
-1.5707962758737317
 42
-0.0000001229345471
  0
LINE
  5
7D
102
{ACAD_REACTORS
330
96
102
}
100
AcDbEntity
  8
0
  6
CONTINUOUS
 62
     7
100
AcDbLine
 10
6.720408
 20
2.652715
 30
0.0
 11
6.720408
 21
3.714457
 31
0.0
  0
ELLIPSE
  5
7E
102
{ACAD_REACTORS
330
96
102
}
100
AcDbEntity
  8
0
  6
CONTINUOUS
 62
     7
100
AcDbEllipse
 10
6.505157
 20
3.714457
 30
0.0
 11
0.2152504012576462
 21
-0.0000000000000008
 31
0.0
210
0.0
220
0.0
230
1.0
 40
0.961309
 41
0.0000000509208925
 42
1.5707962038605208
  0
LINE
  5
7F
102
{ACAD_REACTORS
330
96
102
}
100
AcDbEntity
  8
0
  6
CONTINUOUS
 62
     7
100
AcDbLine
 10
6.505157
 20
3.921379
 30
0.0
 11
0.416135
 21
3.921379
 31
0.0
  0
ARC
  5
80
102
{ACAD_REACTORS
330
96
102
}
100
AcDbEntity
  8
0
  6
CONTINUOUS
 62
     7
100
AcDbCircle
 10
0.416135
 20
3.50691
 30
0.0
 40
0.414469
100
AcDbArc
 50
90.000006
 51
179.999986
  0
LINE
  5
81
102
{ACAD_REACTORS
330
96
102
}
100
AcDbEntity
  8
0
  6
CONTINUOUS
 62
     7
100
AcDbLine
 10
0.001667
 20
3.50691
 30
0.0
 11
0.001667
 21
0.420948
 31
0.0
  0
ARC
  5
82
102
{ACAD_REACTORS
330
96
102
}
100
AcDbEntity
  8
0
  6
CONTINUOUS
 62
     7
100
AcDbCircle
 10
0.416135
 20
0.420948
 30
0.0
 40
0.414469
100
AcDbArc
 50
180.000014
 51
269.999994
  0
LINE
  5
83
102
{ACAD_REACTORS
330
96
102
}
100
AcDbEntity
  8
0
  6
CONTINUOUS
 62
     7
100
AcDbLine
 10
0.416135
 20
0.006479
 30
0.0
 11
1.220414
 21
0.006479
 31
0.0
  0
LINE
  5
84
102
{ACAD_REACTORS
330
96
102
}
100
AcDbEntity
  8
0
  6
CONTINUOUS
 62
     7
100
AcDbLine
 10
1.220414
 20
0.006479
 30
0.0
 11
1.220414
 21
0.001667
 31
0.0
  0
LINE
  5
85
102
{ACAD_REACTORS
330
96
102
}
100
AcDbEntity
  8
0
  6
CONTINUOUS
 62
     7
100
AcDbLine
 10
1.220414
 20
0.001667
 30
0.0
 11
6.50516
 21
0.001667
 31
0.0
  0
ELLIPSE
  5
86
102
{ACAD_REACTORS
330
96
102
}
100
AcDbEntity
  8
0
  6
CONTINUOUS
 62
     7
100
AcDbEllipse
 10
6.50516
 20
0.208589
 30
0.0
 11
0.2152504277195988
 21
-0.0000000000000008
 31
0.0
210
0.0
220
0.0
230
1.0
 40
0.961309
 41
-1.5707961529383292
 42
-0.0000001738561
  0
LINE
  5
87
102
{ACAD_REACTORS
330
96
102
}
100
AcDbEntity
  8
0
  6
CONTINUOUS
 62
     7
100
AcDbLine
 10
6.720411
 20
0.208589
 30
0.0
 11
6.720411
 21
1.270331
 31
0.0
  0
ELLIPSE
  5
88
102
{ACAD_REACTORS
330
96
102
}
100
AcDbEntity
  8
0
  6
CONTINUOUS
 62
     7
100
AcDbEllipse
 10
6.50516
 20
1.270331
 30
0.0
 11
0.2152504012578234
 21
-0.0000000000000008
 31
0.0
210
0.0
220
0.0
230
1.0
 40
0.961309
 41
0.0000001229349206
 42
1.57079627587315
  0
LINE
  5
89
102
{ACAD_REACTORS
330
96
102
}
100
AcDbEntity
  8
0
  6
CONTINUOUS
 62
     7
100
AcDbLine
 10
6.50516
 20
1.477253
 30
0.0
 11
4.747967
 21
1.477253
 31
0.0
  0
LINE
  5
8A
102
{ACAD_REACTORS
330
96
102
}
100
AcDbEntity
  8
0
  6
CONTINUOUS
 62
     7
100
AcDbLine
 10
4.747967
 20
1.477253
 30
0.0
 11
4.747967
 21
0.389181
 31
0.0
  0
ARC
  5
8B
102
{ACAD_REACTORS
330
96
102
}
100
AcDbEntity
  8
0
  6
CONTINUOUS
 62
     7
100
AcDbCircle
 10
4.60376
 20
0.49548
 30
0.0
 40
0.179151
100
AcDbArc
 50
269.999997
 51
323.605045
  0
LINE
  5
8C
102
{ACAD_REACTORS
330
96
102
}
100
AcDbEntity
  8
0
  6
CONTINUOUS
 62
     7
100
AcDbLine
 10
4.60376
 20
0.316329
 30
0.0
 11
3.349111
 21
0.316329
 31
0.0
  0
LINE
  5
8D
102
{ACAD_REACTORS
330
96
102
}
100
AcDbEntity
  8
0
  6
CONTINUOUS
 62
     7
100
AcDbLine
 10
3.349111
 20
0.316329
 30
0.0
 11
3.349111
 21
0.321142
 31
0.0
  0
LINE
  5
8E
102
{ACAD_REACTORS
330
96
102
}
100
AcDbEntity
  8
0
  6
CONTINUOUS
 62
     7
100
AcDbLine
 10
3.349111
 20
0.321142
 30
0.0
 11
2.071439
 21
0.321142
 31
0.0
  0
ARC
  5
8F
102
{ACAD_REACTORS
330
96
102
}
100
AcDbEntity
  8
0
  6
CONTINUOUS
 62
     7
100
AcDbCircle
 10
2.07144
 20
0.500293
 30
0.0
 40
0.179152
100
AcDbArc
 50
181.53894
 51
269.999949
  0
ARC
  5
90
102
{ACAD_REACTORS
330
96
102
}
100
AcDbEntity
  8
0
  6
CONTINUOUS
 62
     7
100
AcDbCircle
 10
2.07144
 20
0.500293
 30
0.0
 40
0.179152
100
AcDbArc
 50
180.40267
 51
181.53894
  0
LINE
  5
91
102
{ACAD_REACTORS
330
96
102
}
100
AcDbEntity
  8
0
  6
CONTINUOUS
 62
     7
100
AcDbLine
 10
1.892292
 20
0.499034
 30
0.0
 11
1.892288
 21
0.711279
 31
0.0
  0
LINE
  5
92
102
{ACAD_REACTORS
330
96
102
}
100
AcDbEntity
  8
0
  6
CONTINUOUS
 62
     7
100
AcDbLine
 10
1.892288
 20
0.711279
 30
0.0
 11
1.892288
 21
1.211523
 31
0.0
  0
LINE
  5
93
102
{ACAD_REACTORS
330
96
102
}
100
AcDbEntity
  8
0
  6
CONTINUOUS
 62
     7
100
AcDbLine
 10
1.892288
 20
1.211523
 30
0.0
 11
1.892288
 21
1.626365
 31
0.0
  0
LINE
  5
94
102
{ACAD_REACTORS
330
96
102
}
100
AcDbEntity
  8
0
  6
CONTINUOUS
 62
     7
100
AcDbLine
 10
1.892288
 20
1.626365
 30
0.0
 11
1.892292
 21
1.62748
 31
0.0
  0
LINE
  5
95
102
{ACAD_REACTORS
330
96
102
}
100
AcDbEntity
  8
0
  6
CONTINUOUS
 62
     7
100
AcDbLine
 10
1.892292
 20
1.62748
 30
0.0
 11
1.892292
 21
2.300378
 31
0.0
  0
HATCH
  5
96
100
AcDbEntity
  8
0
 62
     7
100
AcDbHatch
 10
0.0
 20
0.0
 30
0.0
210
0.0
220
0.0
230
1.0
  2
SOLID
 70
     1
 71
     1
 91
        1
 92
        1
 93
       34
 72
     1
 10
1.8922915456450458
 20
2.3003776224024213
 11
1.8922880754867792
 21
2.301492691049623
 72
     1
 10
1.8922880754867792
 20
2.301492691049623
 11
1.8922884227425432
 21
2.7115228553658195
 72
     1
 10
1.8922884227425432
 20
2.7115228553658195
 11
1.8922890291610961
 21
3.4275653916710596
 72
     2
 10
2.0714400475547285
 20
3.4275655130866451
 40
0.1791510183936736
 50
90.000211
 51
180.000039
 73
     1
 72
     1
 10
2.0714393870035455
 20
3.6067165314791008
 11
4.6037567869821832
 21
3.6067167031878187
 72
     2
 10
4.6037567975189262
 20
3.4275654171089776
 40
0.1791512860788414
 50
36.394955
 51
90.000003
 73
     1
 72
     1
 10
4.7479639165086098
 20
3.5338644770126213
 11
4.7479639165086045
 21
2.4457928681411083
 72
     1
 10
4.7479639165086045
 20
2.4457928681411083
 11
6.5051572115928433
 21
2.4457928681411083
 72
     3
 10
6.5051572006320431
 20
2.6527149329685846
 11
0.2152504012576773
 21
-0.0000000000000008
 40
0.961309
 50
270.000003
 51
359.999993
 73
     1
 72
     1
 10
6.7204076018897183
 20
2.6527149075307133
 11
6.7204075863888146
 21
3.7144569897689106
 72
     3
 10
6.5051571851311678
 20
3.714456979232255
 11
0.2152504012576462
 21
-0.0000000000000008
 40
0.961309
 50
0.000003
 51
89.999993
 73
     1
 72
     1
 10
6.5051572115928433
 20
3.9213790440597003
 11
0.4161354319254165
 21
3.9213789283869129
 72
     2
 10
0.4161354740722441
 20
3.5069101209813258
 40
0.4144688074055892
 50
90.000006
 51
179.999986
 73
     1
 72
     1
 10
0.0016666666666674
 20
3.506910222732762
 11
0.0016666666666683
 21
0.4209476887819559
 72
     2
 10
0.4161354748415397
 20
0.4209477908520387
 40
0.414468808174884
 50
180.000014
 51
269.999994
 73
     1
 72
     1
 10
0.4161354319254201
 20
0.006478982677157
 11
1.220414191984305
 21
0.006478982677157
 72
     1
 10
1.220414191984305
 20
0.006478982677157
 11
1.220414191984305
 21
0.001666722734905
 72
     1
 10
1.220414191984305
 20
0.001666722734905
 11
6.505160458956416
 21
0.0016666666666669
 72
     3
 10
6.5051604215337164
 20
0.2085887569322134
 11
0.2152504277195988
 21
-0.0000000000000008
 40
0.961309
 50
270.00001
 51
359.99999
 73
     1
 72
     1
 10
6.7204108492533123
 20
0.208588720957545
 11
6.7204108492533106
 21
1.2703308031957423
 72
     3
 10
6.5051604479954879
 20
1.2703307777577957
 11
0.2152504012578234
 21
-0.0000000000000008
 40
0.961309
 50
0.000007
 51
89.999997
 73
     1
 72
     1
 10
6.505160458956416
 20
1.4772528425854123
 11
4.7479671638721772
 21
1.4772528425854166
 72
     1
 10
4.7479671638721772
 20
1.4772528425854166
 11
4.7479671638721772
 21
0.3891812337138383
 72
     2
 10
4.6037600448825078
 20
0.4954802936174709
 40
0.1791512860788244
 50
269.999997
 51
323.605045
 73
     1
 72
     1
 10
4.6037600343457559
 20
0.3163290075386469
 11
3.3491109118572786
 21
0.3163290149214948
 72
     1
 10
3.3491109118572786
 20
0.3163290149214948
 11
3.3491109118572786
 21
0.3211415886518747
 72
     1
 10
3.3491109118572786
 20
0.3211415886518747
 11
2.0714393870035415
 21
0.3211416035530403
 72
     2
 10
2.0714395450544854
 20
0.5002932966384953
 40
0.1791516930855247
 50
181.53894
 51
269.999949
 73
     1
 72
     2
 10
2.0714395451394223
 20
0.5002932966401823
 40
0.1791516931704762
 50
180.40267
 51
181.53894
 73
     1
 72
     1
 10
1.8922922762532974
 20
0.4990342428323764
 11
1.8922878680796216
 21
0.711279173883275
 72
     1
 10
1.8922878680796216
 20
0.711279173883275
 11
1.8922879814614337
 21
1.211522855363983
 72
     1
 10
1.8922879814614337
 20
1.211522855363983
 11
1.8922880754867799
 21
1.6263652796190851
 72
     1
 10
1.8922880754867799
 20
1.6263652796190851
 11
1.8922915456450453
 21
1.6274803482683988
 72
     1
 10
1.8922915456450453
 20
1.6274803482683988
 11
1.8922915456450458
 21
2.3003776224024213
 97
       34
330
74
330
75
330
76
330
77
330
78
330
79
330
7A
330
7B
330
7C
330
7D
330
7E
330
7F
330
80
330
81
330
82
330
83
330
84
330
85
330
86
330
87
330
88
330
89
330
8A
330
8B
330
8C
330
8D
330
8E
330
8F
330
90
330
91
330
92
330
93
330
94
330
95
 75
     0
 76
     1
 98
        0
  0
ENDSEC
  0
SECTION
  2
OBJECTS
  0
DICTIONARY
  5
C
100
AcDbDictionary
  3
ACAD_GROUP
350
D
  3
ACAD_MLINESTYLE
350
1B
  3
ACAD_SCALELIST
350
2C
  3
ACAD_VISUALSTYLE
350
51
  3
ACAD_MATERIAL
350
6A
  3
ACAD_TABLESTYLE
350
6E
  3
ACAD_MLEADERSTYLE
350
70
  0
DICTIONARY
  5
D
102
{ACAD_REACTORS
330
C
102
}
100
AcDbDictionary
  0
DICTIONARY
  5
1B
102
{ACAD_REACTORS
330
C
102
}
100
AcDbDictionary
  3
STANDARD
350
1C
  0
MLINESTYLE
  5
1C
102
{ACAD_REACTORS
330
1B
102
}
100
AcDbMlineStyle
  2
STANDARD
 70
     0
  3

 62
   256
 51
90.0
 52
90.0
 71
     2
 49
0.5
 62
   256
  6
BYLAYER
 49
-0.5
 62
   256
  6
BYLAYER
  0
DICTIONARY
  5
29
102
{ACAD_REACTORS
330
C
102
}
100
AcDbDictionary
  0
DICTIONARY
  5
2C
102
{ACAD_REACTORS
330
C
102
}
100
AcDbDictionary
  3
A0
350
2D
  3
A1
350
2E
  3
A2
350
2F
  3
A3
350
30
  3
A4
350
31
  3
A5
350
32
  3
A6
350
33
  3
A7
350
34
  3
A8
350
35
  3
A9
350
36
  3
B0
350
37
  3
B1
350
38
  3
B2
350
39
  3
B3
350
3A
  3
B4
350
3B
  3
B5
350
3C
  3
B6
350
3D
  3
B7
350
3E
  3
B8
350
3F
  3
B9
350
40
  3
C0
350
41
  3
C1
350
42
  3
C2
350
43
  3
C3
350
44
  3
C4
350
45
  3
C5
350
46
  3
C6
350
47
  3
C7
350
48
  3
C8
350
49
  3
C9
350
4A
  3
D0
350
4B
  3
D1
350
4C
  3
D2
350
4D
  0
DICTIONARY
  5
4E
102
{ACAD_REACTORS
330
C
102
}
100
AcDbDictionary
  3
MODEL
350
4F
  3
LAYOUT1
350
50
  0
DICTIONARY
  5
51
102
{ACAD_REACTORS
330
C
102
}
100
AcDbDictionary
  3
FLAT
350
52
  3
FLATWITHEDGES
350
53
  3
GOURAUD
350
54
  3
GOURAUDWITHEDGES
350
55
  3
2DWIREFRAME
350
56
  3
WIREFRAME
350
57
  3
HIDDEN
350
58
  3
BASIC
350
59
  3
REALISTIC
350
5A
  3
CONCEPTUAL
350
5B
  3
DIM
350
5C
  3
BRIGHTEN
350
5D
  3
THICKEN
350
5E
  3
LINEPATTERN
350
5F
  3
FACEPATTERN
350
60
  3
COLORCHANGE
350
61
  3
JITTEROFF
350
62
  3
OVERHANGOFF
350
63
  3
EDGECOLOROFF
350
64
  3
SHADES OF GRAY
350
65
  3
SKETCHY
350
66
  3
X-RAY
350
67
  3
SHADED WITH EDGES
350
68
  3
SHADED
350
69
  0
DICTIONARY
  5
6A
102
{ACAD_REACTORS
330
C
102
}
100
AcDbDictionary
  3
BYLAYER
350
6B
  3
BYBLOCK
350
6C
  3
GLOBAL
350
6D
  0
DICTIONARY
  5
6E
102
{ACAD_REACTORS
330
C
102
}
100
AcDbDictionary
  3
STANDARD
350
6F
  0
DICTIONARY
  5
70
102
{ACAD_REACTORS
330
C
102
}
100
AcDbDictionary
  3
STANDARD
350
71
  0
ENDSEC
  0
EOF
